<svg id="Group_10" data-name="Group 10" xmlns="http://www.w3.org/2000/svg" xmlns:xlink="http://www.w3.org/1999/xlink" width="20" height="20" viewBox="0 0 20 20">
  <defs>
    <clipPath id="clip-path">
      <rect id="Rectangle_6" data-name="Rectangle 6" width="20" height="20" fill="none"/>
    </clipPath>
  </defs>
  <g id="Group_9" data-name="Group 9" clip-path="url(#clip-path)">
    <path id="Path_25" data-name="Path 25" d="M5,9.286H4.99a.715.715,0,1,0,0,1.429H15.01a.715.715,0,0,0,0-1.429H5Z" fill="#fff"/>
    <path id="Path_26" data-name="Path 26" d="M10.714,5V4.99a.715.715,0,1,0-1.429,0V5h0V15.01a.715.715,0,1,0,1.429,0V15h0Z" fill="#fff"/>
    <path id="Path_27" data-name="Path 27" d="M10,0A10,10,0,1,0,20,10,10.011,10.011,0,0,0,10,0Zm0,1.429A8.572,8.572,0,1,1,1.428,10,8.561,8.561,0,0,1,10,1.429" fill="#fff"/>
  </g>
</svg>
