<svg id="Group_4966" data-name="Group 4966" xmlns="http://www.w3.org/2000/svg" xmlns:xlink="http://www.w3.org/1999/xlink" width="66" height="66" viewBox="0 0 66 66">
  <defs>
    <clipPath id="clip-path">
      <rect id="Rectangle_4644" data-name="Rectangle 4644" width="66" height="66" fill="none"/>
    </clipPath>
  </defs>
  <g id="Group_4965" data-name="Group 4965" clip-path="url(#clip-path)">
    <path id="Path_15154" data-name="Path 15154" d="M46.782,35.935A13.706,13.706,0,0,0,36.843,40.2a13.841,13.841,0,0,0-.961,1.126,13.621,13.621,0,0,0-2.148,4.086L26.215,37.89a11.368,11.368,0,0,0,1.207-11.1,1.037,1.037,0,0,0,.323-.215L36.523,17.8a9.053,9.053,0,1,0-1.259-1.806l-8.887,8.887a11.432,11.432,0,1,0-1.586,14.653l8.39,8.39a14.169,14.169,0,0,0-.118,1.729A13.718,13.718,0,1,0,46.782,35.935M39.891,17.786a1.053,1.053,0,0,0,.059-.291,3.156,3.156,0,1,1,6.311,0,1.069,1.069,0,0,0,.133.495,6.885,6.885,0,0,1-6.5-.2m1.826-7A1.389,1.389,0,1,1,43.1,12.17a1.39,1.39,0,0,1-1.388-1.389M43.336,4.8a6.948,6.948,0,0,1,5,11.778,5.314,5.314,0,0,0-2.452-3.6,3.52,3.52,0,0,0,.778-2.194,3.558,3.558,0,1,0-6.338,2.194,5.32,5.32,0,0,0-2.358,3.195c-.066-.08-.125-.167-.188-.251a1.057,1.057,0,0,0-.288-.617.973.973,0,0,0-.212-.14A6.947,6.947,0,0,1,43.336,4.8M7.669,31.277A9.252,9.252,0,1,1,24.252,36.9h0a7.461,7.461,0,0,0-3.987-5.375,4.795,4.795,0,1,0-6.687,0A7.457,7.457,0,0,0,9.59,36.9a9.2,9.2,0,0,1-1.921-5.624M14.3,28.1a2.627,2.627,0,1,1,2.626,2.626A2.629,2.629,0,0,1,14.3,28.1m-2.83,10.635a1.057,1.057,0,0,0,.18-.564,5.275,5.275,0,1,1,10.551,0,1.057,1.057,0,0,0,.18.564,9.176,9.176,0,0,1-10.911,0M39.4,58.526a7.387,7.387,0,0,1,14.762,0,11.517,11.517,0,0,1-14.762,0M42.92,45.412a3.863,3.863,0,1,1,3.863,3.864,3.868,3.868,0,0,1-3.863-3.864m13.13,11.1A9.6,9.6,0,0,0,50.6,50.077a6.034,6.034,0,1,0-7.641,0,9.6,9.6,0,0,0-5.449,6.438,11.475,11.475,0,0,1-2.281-6.862,11.775,11.775,0,0,1,.1-1.46,1.056,1.056,0,0,0,.13-.807A11.412,11.412,0,0,1,37.6,42.642a11.15,11.15,0,0,1,.809-.947A11.549,11.549,0,0,1,58.33,49.654a11.475,11.475,0,0,1-2.28,6.861" fill="#1ba99d"/>
  </g>
</svg>
