<svg id="Group_4966" data-name="Group 4966" xmlns="http://www.w3.org/2000/svg" xmlns:xlink="http://www.w3.org/1999/xlink" width="66" height="66" viewBox="0 0 66 66">
  <defs>
    <clipPath id="clip-path">
      <rect id="Rectangle_4644" data-name="Rectangle 4644" width="66" height="66" fill="none"/>
    </clipPath>
  </defs>
  <g id="Group_4965" data-name="Group 4965" clip-path="url(#clip-path)">
    <path id="Path_15154" data-name="Path 15154" d="M33,5.5A27.5,27.5,0,1,0,60.5,33,27.5,27.5,0,0,0,33,5.5m0,52.963c-3.738,0-7.13-4.421-9.167-11.031A48.44,48.44,0,0,0,33,48.277a48.437,48.437,0,0,0,9.166-.845C40.129,54.042,36.738,58.463,33,58.463M33,46.24a46.428,46.428,0,0,1-9.778-1.018A51.187,51.187,0,0,1,21.8,33a51.189,51.189,0,0,1,1.426-12.223,47.441,47.441,0,0,1,19.555,0A51.189,51.189,0,0,1,44.2,33a51.187,51.187,0,0,1-1.426,12.222A46.425,46.425,0,0,1,33,46.24M20.971,44.713C12.975,42.431,7.537,38.041,7.537,33s5.438-9.432,13.434-11.662A54.669,54.669,0,0,0,19.759,33a54.641,54.641,0,0,0,1.212,11.713M33,7.537c3.738,0,7.129,4.42,9.166,11.03a50,50,0,0,0-18.333,0C25.87,11.957,29.262,7.537,33,7.537m12.028,13.8c8,2.23,13.435,6.62,13.435,11.662s-5.439,9.431-13.435,11.713A54.642,54.642,0,0,0,46.24,33a54.67,54.67,0,0,0-1.212-11.662M57.444,25.9c-2.791-3.056-7.354-5.429-12.976-6.835-1.283-4.695-3.259-8.484-5.632-10.847A25.545,25.545,0,0,1,57.444,25.9M27.163,8.219c-2.373,2.363-4.328,6.111-5.632,10.847-5.622,1.406-10.185,3.81-12.976,6.835A25.545,25.545,0,0,1,27.163,8.219M8.555,40.1c2.791,3.055,7.354,5.428,12.976,6.834,1.3,4.695,3.259,8.484,5.632,10.847A25.546,25.546,0,0,1,8.555,40.1M38.836,57.78c2.373-2.363,4.328-6.111,5.632-10.847,5.622-1.406,10.185-3.809,12.976-6.834A25.546,25.546,0,0,1,38.836,57.78M29.944,27.907v4.074h7.13A1.019,1.019,0,0,1,38.092,33v6.111a1.018,1.018,0,0,1-1.018,1.018H34.018v3.056H31.981V40.129H27.907V38.092h8.148V34.018h-7.13A1.018,1.018,0,0,1,27.907,33V26.888a1.018,1.018,0,0,1,1.018-1.018h3.056V22.814h2.037V25.87h4.074v2.037Z" fill="#1ba99d"/>
  </g>
</svg>
