<?xml version="1.0" encoding="UTF-8"?><svg id="Layer_2" xmlns="http://www.w3.org/2000/svg" viewBox="0 0 1366.25 924.34"><defs><style>.cls-1{fill:#f2e8e8;}.cls-2{fill:#fdfeff;}.cls-3{fill:#28418c;}.cls-4{fill:#485481;}.cls-5{fill:none;stroke:#28418c;stroke-miterlimit:10;}</style></defs><g id="Layer_1-2"><rect class="cls-1" width="1366" height="910.67"/><rect class="cls-5" x="192.55" y="77.42" width="19" height="19" transform="translate(283.47 291.25) rotate(-135)"/><rect class="cls-3" x="227.27" y="77.42" width="19" height="19" transform="translate(342.73 315.79) rotate(-135)"/><rect class="cls-3" x="261.98" y="77.42" width="19" height="19" transform="translate(401.99 340.34) rotate(-135)"/><path class="cls-4" d="m15.8,682.03c-2.68-1.96-6.69-1.4-8.72,1.21-2.09,2.7-1.51,6.92,1.24,8.93,2.68,1.96,6.69,1.4,8.72-1.21,2.09-2.7,1.51-6.92-1.24-8.93Z"/><path class="cls-4" d="m.83,628.71c-.18-.14-.38-.25-.58-.36v10.73c.63-.37,1.21-.84,1.67-1.43,2.09-2.67,1.58-6.84-1.09-8.94Z"/><path class="cls-4" d="m5.27,893.72c-1.6-1.26-3.38-1.64-5.02-1.23v12.08c2.04.35,4.22-.4,5.67-2.21,2.47-3.06,2.21-6.38-.66-8.63Z"/><path class="cls-4" d="m2.21,593.21c-.62-.48-1.29-.8-1.96-1.01v11.62c1.14-.43,2.21-1.22,3.08-2.36,2.07-2.73,1.6-6.17-1.12-8.25Z"/><path class="cls-4" d="m17.15,647.17c-2.74-2.18-6.05-1.87-8.2.76-2.57,3.13-2.41,6.43.42,8.84,2.44,2.07,6.25,1.63,8.36-.96,2.49-3.07,2.27-6.39-.58-8.64Z"/><path class="cls-4" d="m28.88,771.5c-2.82-2.33-6.19-2.04-8.42.73-2.49,3.09-2.27,6.58.57,8.82,2.6,2.06,6.18,1.59,8.34-1.1,2.38-2.97,2.19-6.24-.49-8.45Z"/><path class="cls-4" d="m30.54,736.26c-2.64-2.07-6.23-1.66-8.31.94-2.1,2.63-1.74,6.22.84,8.33,2.61,2.13,6.21,1.81,8.34-.74,2.24-2.68,1.86-6.39-.87-8.53Z"/><path class="cls-4" d="m25.48,841.73c-2.48-1.99-6.41-1.44-8.46,1.18-1.95,2.48-1.61,6.38.73,8.43,2.26,1.98,6.53,1.39,8.53-1.18,2.09-2.67,1.74-6.39-.8-8.43Z"/><path class="cls-4" d="m28.35,814.97c2.06-2.65,1.63-6.23-.99-8.31-2.63-2.09-6.22-1.7-8.32.89-2.19,2.71-1.75,6.41,1.02,8.51,2.67,2.03,6.24,1.56,8.29-1.09Z"/><path class="cls-4" d="m32.56,700.76c-2.52-1.86-6.39-1.24-8.3,1.33-2.01,2.71-1.48,5.99,1.3,8.09,2.72,2.04,6.12,1.58,8.12-1.1,1.9-2.55,1.37-6.5-1.12-8.33Z"/><path class="cls-4" d="m24.46,885.82c2.24-2.84,2.08-6.54-.38-8.6-2.32-1.95-6.43-1.45-8.32,1.12-2,2.73-1.75,5.79.95,7.78,2.91,2.14,5.84,2.1,7.75-.3Z"/><path class="cls-4" d="m18.76,612.15c-2.38-1.8-6.23-1.31-8.1,1.16-2,2.64-2.05,5.86,1.06,7.96,2.76,2.15,5.84,1.93,7.71-.54,2.15-2.85,1.86-6.67-.67-8.58Z"/><path class="cls-4" d="m34.09,665.71c-2.35-1.99-6.2-1.59-8.14.85-1.92,2.42-1.42,6.27,1.06,8.11,2.41,1.79,6.04,1.32,7.91-1.03,1.85-2.33,1.47-5.99-.82-7.93Z"/><path class="cls-4" d="m3.69,558.67c-1.16-.89-2.32-1.29-3.44-1.26v11.32c1.56-.03,3.08-.86,4.33-2.48,2.13-2.77,1.82-5.5-.88-7.58Z"/><path class="cls-4" d="m45.89,797.98c2.4-3.02,2.23-5.59-.51-7.76-2.77-2.18-5.35-1.9-7.51.82-2.41,3.04-2.21,5.79.56,7.93,2.59,2,5.38,1.62,7.46-1Z"/><path class="cls-4" d="m47.32,755.07c-2.45-1.99-5.81-1.62-7.76.84-1.96,2.47-1.55,5.82.94,7.74,2.4,1.85,5.63,1.51,7.55-.82,2.02-2.43,1.7-5.8-.74-7.77Z"/><path class="cls-4" d="m21.81,912.48c-2.51-1.93-5.59-1.43-7.6,1.23-1.77,2.35-1.38,6.01.82,7.66,2.29,1.71,5.91,1.03,7.79-1.47,1.86-2.48,1.45-5.54-1.01-7.42Z"/><path class="cls-4" d="m49.62,727.1c1.78-2.45,1.27-5.67-1.18-7.5-2.43-1.81-5.66-1.35-7.51,1.08-1.85,2.43-1.44,5.64.98,7.52,2.5,1.95,5.84,1.47,7.71-1.11Z"/><path class="cls-4" d="m43.91,825.39c-2.43-1.85-5.64-1.44-7.52.98-1.95,2.5-1.47,5.84,1.11,7.71,2.45,1.78,5.67,1.27,7.5-1.18,1.81-2.43,1.35-5.66-1.08-7.51Z"/><path class="cls-4" d="m35.52,630.86c-2.41-1.85-5.71-1.38-7.53,1.05-1.81,2.42-1.3,5.72,1.16,7.52,2.34,1.71,5.52,1.27,7.32-1.03,1.87-2.39,1.46-5.7-.95-7.54Z"/><path class="cls-4" d="m50.41,684.84c-2.18-1.78-5.74-1.36-7.55.9-2.08,2.6-1.77,5.19.87,7.31,2.68,2.14,5.25,1.92,7.34-.63,1.84-2.25,1.53-5.79-.66-7.58Z"/><path class="cls-4" d="m20.39,577.57c-2.22-1.76-5.74-1.29-7.53,1.01-2.03,2.61-1.68,5.2.98,7.29,2.69,2.11,5.26,1.85,7.32-.74,1.81-2.27,1.45-5.81-.77-7.57Z"/><path class="cls-4" d="m32.3,897.26c-1.8,2.45-1.4,5.03,1.08,6.97,2.84,2.21,4.88,1.87,7.2-.62,1.97-2.13.91-6.11-.77-7.51-2-1.66-5.9-1.02-7.51,1.16Z"/><path class="cls-4" d="m42.94,868.01c1.79-2.23,1.47-5.52-.71-7.36-2.18-1.84-5.49-1.61-7.38.51-1.98,2.22-1.74,5.68.52,7.59,2.27,1.92,5.71,1.58,7.57-.74Z"/><path class="cls-4" d="m55.1,809.56c-1.72,2.14-1.36,5.33.79,7.05,2.14,1.72,5.33,1.36,7.05-.79,1.72-2.14,1.36-5.33-.79-7.05-2.14-1.71-5.33-1.36-7.05.79Z"/><path class="cls-4" d="m53.09,656.88c1.8-2.28,1.46-5.74-.72-7.43-2.09-1.61-5.47-1.13-7.24,1.04-1.67,2.05-1.22,5.28.99,7,2.3,1.79,5.29,1.53,6.98-.61Z"/><path class="cls-4" d="m36.81,595.77c-2.04-1.65-5.42-1.22-7.25.93-1.75,2.06-1.35,5.26.87,7.01,2.29,1.81,5.31,1.59,6.99-.49,1.82-2.25,1.54-5.7-.61-7.44Z"/><path class="cls-4" d="m64.62,781.17c1.82-2.24,1.54-5.7-.59-7.45-2.11-1.73-5.74-1.17-7.44,1.14-1.53,2.08-1.07,5.13,1.03,6.78,2.29,1.81,5.31,1.6,7-.47Z"/><path class="cls-4" d="m4.83,523.49c-1.36-1-3.07-1.19-4.58-.67v9.4c1.98.67,4.25.08,5.58-1.66,1.68-2.21,1.23-5.42-1.01-7.06Z"/><path class="cls-4" d="m65.34,738.39c-2.17-1.72-5.39-1.32-7.08.88-1.62,2.11-1.29,5.17.75,6.89,2.11,1.78,5.35,1.47,7.11-.67,1.75-2.14,1.4-5.37-.77-7.09Z"/><path class="cls-4" d="m53.09,845.28c-2,2.53-1.85,5.19.4,7.01,2.29,1.85,4.96,1.43,6.92-1.07,1.93-2.47,1.65-4.96-.74-6.8-2.28-1.75-4.77-1.42-6.58.87Z"/><path class="cls-4" d="m67.63,710.39c1.94-2.47,1.69-4.97-.69-6.81-2.28-1.76-4.78-1.46-6.58.81-2.02,2.54-1.9,5.18.34,7.01,2.26,1.85,4.98,1.46,6.93-1.02Z"/><path class="cls-4" d="m21.71,542.15c-2.15-1.65-4.82-1.29-6.61.89-1.94,2.37-1.75,5.25.47,7.01,2.12,1.69,4.95,1.3,6.71-.92,1.95-2.46,1.72-5.21-.58-6.98Z"/><path class="cls-4" d="m53.59,614.43c-2.1-1.69-4.95-1.32-6.73.85-1.73,2.12-1.51,5.25.48,6.94,1.77,1.5,5.09,1.1,6.68-.81,1.92-2.31,1.74-5.24-.43-6.98Z"/><path class="cls-4" d="m51.66,880.72c-1.72,2.12-1.5,5.26.49,6.94,1.75,1.47,5.12,1.05,6.68-.83,1.92-2.31,1.73-5.24-.45-6.98-2.1-1.68-4.95-1.31-6.73.87Z"/><path class="cls-4" d="m39.17,567.62c1.55-2.06,1.2-5.01-.79-6.58-1.98-1.56-4.94-1.21-6.58.79-1.8,2.19-1.48,4.8.79,6.58,2.3,1.8,4.86,1.49,6.58-.79Z"/><path class="cls-4" d="m75.24,758.37c-1.44,1.88-1.07,4.88.79,6.36,1.94,1.54,5.13,1.1,6.55-.92,1.37-1.94.9-4.94-.99-6.33-1.91-1.41-4.91-.99-6.35.89Z"/><path class="cls-4" d="m61.77,669.01c-1.66,2.08-1.25,5.18.91,6.74,2.07,1.5,4.99,1.05,6.52-.99,1.53-2.04,1.13-4.97-.89-6.53s-4.95-1.21-6.55.78Z"/><path class="cls-4" d="m73.24,793.5c-1.56,2.01-1.2,4.62.86,6.24,2.29,1.8,4.67,1.68,6.2-.31,1.73-2.25,1.48-5.55-.54-7-1.85-1.33-5.08-.8-6.53,1.07Z"/><path class="cls-4" d="m76.88,722.79c-1.31,2.03-1.88,4.04,1,6.17,2.03,1.55,4.46,1.47,5.81-.18,1.82-2.25,1.67-5.49-.34-7.03-1.86-1.43-5.13-1.02-6.47,1.05Z"/><path class="cls-4" d="m71.9,829.02c-1.75,2.73-1.21,4.51,1.05,6.16,2.03,1.54,4.47,1.44,5.8-.23,1.81-2.28,1.64-5.51-.39-7.02-1.88-1.4-5.15-.97-6.47,1.09Z"/><path class="cls-4" d="m49.86,916.03c-1.76,2.73-1.21,4.51,1.05,6.17,2.03,1.54,4.46,1.45,5.81-.23,1.82-2.27,1.64-5.51-.38-7.02-1.87-1.4-5.15-.97-6.47,1.08Z"/><path class="cls-4" d="m6.49,489.06c-1.87-1.52-4.71-1.21-6.24.65v5.61c.16.2.33.39.52.56,1.83,1.6,4.75,1.37,6.32-.5,1.57-1.86,1.29-4.77-.61-6.31Z"/><path class="cls-4" d="m55.09,579.9c-2.32-1.83-4.1-1.6-5.95.78-1.98,2.54-1.83,4.4.49,6.17,2.26,1.73,4.13,1.36,6.08-1.19,1.74-2.27,1.54-4.04-.62-5.76Z"/><path class="cls-4" d="m70.29,639.77c1.95-2.45,1.84-4.23-.36-6-2.33-1.86-4.12-1.65-5.96.7-1.96,2.51-1.84,4.43.41,6.18,2.2,1.71,4.07,1.43,5.91-.88Z"/><path class="cls-4" d="m70.52,864.06c-1.73,2.13-1.53,4.76.47,6.24,1.73,1.27,4.37.88,5.77-.85,1.84-2.26,1.75-4.36-.25-6.04-2.07-1.73-4.24-1.49-5.99.65Z"/><path class="cls-4" d="m23.19,507.61c-2.11-1.62-4.2-1.28-5.95.99-1.55,2.01-1.3,4.58.58,6.01,1.81,1.38,4.46.94,5.96-1,1.74-2.26,1.54-4.36-.59-6Z"/><path class="cls-4" d="m78.96,688.08c-1.47,1.94-1.18,4.66.66,6,1.84,1.35,4.47.87,5.95-1.08,1.72-2.26,1.49-4.37-.67-5.99-2.11-1.59-4.2-1.22-5.94,1.07Z"/><path class="cls-4" d="m39.7,532.38c1.58-1.82,1.56-4.58-.05-6.07-1.62-1.5-4.53-1.26-6.03.5-1.53,1.8-1.37,4.83.34,6.22,1.45,1.19,4.45.84,5.75-.66Z"/><path class="cls-4" d="m65.24,599.24c-1.37,1.75-1.13,4.64.48,6,1.51,1.27,4.6.83,5.95-.85,1.49-1.86,1.28-4.65-.45-6.04-1.73-1.39-4.53-.98-5.99.89Z"/><path class="cls-4" d="m80.78,653.2c-1.42,1.93-1.07,3.73,1.04,5.35,2.26,1.73,3.95,1.54,5.59-.64,1.33-1.77.98-4.65-.72-5.88-1.75-1.27-4.52-.72-5.91,1.17Z"/><path class="cls-4" d="m92.38,777.39c-1.44,1.93-1.1,3.74,1,5.36,2.27,1.75,3.96,1.57,5.59-.6,1.34-1.78,1.01-4.64-.68-5.89-1.74-1.28-4.51-.75-5.92,1.13Z"/><path class="cls-4" d="m90.89,812.02c-1.28,1.59-1.04,4.2.51,5.56,1.62,1.42,4.4,1.16,5.76-.54,1.35-1.68,1-4.45-.74-5.74-1.66-1.23-4.24-.9-5.53.72Z"/><path class="cls-4" d="m93.86,742.04c-1.42,2.06-.89,3.8.94,5.27,1.9,1.52,4.14,1.24,5.53-.63,1.33-1.8.96-4.54-.77-5.76-1.76-1.23-4.43-.71-5.7,1.12Z"/><path class="cls-4" d="m69.23,899.38c-1.35,1.72-1.03,4.38.69,5.74,1.72,1.35,4.38,1.03,5.74-.69,1.35-1.72,1.03-4.38-.69-5.74-1.72-1.35-4.38-1.03-5.74.69Z"/><path class="cls-4" d="m56.19,544.5c-1.75-1.25-4.43-.74-5.71,1.09-1.42,2.05-.92,3.8.91,5.27,1.89,1.52,4.14,1.25,5.53-.6,1.34-1.79.99-4.53-.74-5.76Z"/><path class="cls-4" d="m89.5,847.75c-1.18,1.79-1.61,3.68.79,5.2,2.03,1.6,3.8,1.44,5.33-.57,1.39-1.81,1.07-4.28-.71-5.57-1.75-1.27-4.15-.95-5.41.94Z"/><path class="cls-4" d="m95.97,706.94c-1.22,1.76-1.68,3.64.9,5.4,1.8,1.43,3.59,1.32,5.11-.64,1.42-1.82,1.16-4.25-.6-5.59-1.71-1.31-4.12-1.04-5.42.83Z"/><path class="cls-4" d="m82.75,617.91c-1.43,1.84-1.39,4.21.43,5.25,1.69.97,3.62,1.42,5.01-.73,1.54-1.93,1.42-3.96-.4-5.28-1.89-1.37-3.58-1.11-5.03.76Z"/><path class="cls-4" d="m68.04,563.91c-1.81,1.89-1.32,3.92.23,5.24,1.37,1.17,3.47,1.63,4.98-.39,1.59-1.84,1.58-4.01-.1-5.34-1.81-1.43-3.49-1.19-5.1.49Z"/><path class="cls-4" d="m97.93,671.22c-1.76,1.93-1.23,3.93.37,5.22,1.44,1.16,3.52,1.52,4.97-.55,1.56-1.87,1.5-4.01-.26-5.32-1.86-1.39-3.53-1.07-5.08.65Z"/><path class="cls-4" d="m87.96,882.72c-1.31,1.73-1.15,3.5.5,4.89,1.75,1.48,3.62,1.36,5.11-.42,1.49-1.79,1.15-3.55-.6-5.27-1.77-1.01-3.56-1.1-5,.8Z"/><path class="cls-4" d="m109.62,795.5c-1.19,1.6-.97,3.41.57,4.67,1.66,1.36,3.54,1.17,4.88-.5,1.36-1.68.93-3.42-.54-4.93-1.85-1.03-3.62-.98-4.91.76Z"/><path class="cls-4" d="m111.48,760.43c-1.23,1.8-1.11,3.37.49,4.69,1.66,1.38,3.41,1.46,4.81-.3,1.34-1.68,1.22-3.61-.43-4.94-1.66-1.35-3.45-.87-4.87.54Z"/><path class="cls-4" d="m99.75,636.48c-1.31,1.83-.75,3.48,1.02,4.71,1.71,1.2,3.25.85,4.7-.85.89-1.68.92-3.55-.84-4.78-1.72-1.2-3.61-.83-4.87.93Z"/><path class="cls-4" d="m113.26,725.5c-1.29,2.01-.89,3.61.87,4.87,1.69,1.21,3.34,1.01,4.55-.64,1.27-1.73,1.11-3.64-.59-4.92-1.7-1.28-3.49-.77-4.84.69Z"/><path class="cls-4" d="m86.16,917.89c-1.29,2.01-.89,3.61.87,4.87,1.69,1.21,3.34,1.01,4.55-.64,1.27-1.73,1.11-3.64-.59-4.92-1.71-1.28-3.49-.77-4.84.69Z"/><path class="cls-4" d="m84.7,582.95c-1.3,1.59-1.09,3.24.51,4.57,1.66,1.39,3.31,1.39,4.93-.35,1.08-1.68,1.13-3.53-.53-4.86-1.65-1.33-3.55-1.01-4.91.65Z"/><path class="cls-4" d="m108.12,831.07c-1.31,1.83-.75,3.48,1.01,4.71,1.71,1.2,3.25.85,4.63-.77,1-1.77.98-3.63-.77-4.86-1.72-1.21-3.61-.83-4.87.92Z"/><path class="cls-4" d="m106.1,866.58c-.98,1.27-1.53,2.95.63,4.41,1.11,1.15,2.71,1.71,4.17.12,1.46-1.59,1.68-3.69.04-5.17-1.54-1.39-3.58-.99-4.83.64Z"/><path class="cls-4" d="m115.11,690.3c-1.5,1.71-1.42,3.36.25,4.61,1.29.96,3,1.34,4.06-.5,1.41-1.6,1.73-3.07-.08-4.52-1.57-1.26-2.86-1.14-4.23.42Z"/><path class="cls-4" d="m70.06,529.67c-1.53,1.51-.86,3.13.59,4.21,1.5,1.12,3.08.97,4.33-.87,1.12-1.66,1.19-2.94-.44-4.23-1.77-1.4-3.17-.98-4.47.89Z"/><path class="cls-4" d="m101.56,602.19c-.99,1.08-.53,2.78.89,3.9,1.38,1.09,3,.81,4.2-.75,1.22-1.58,1.29-3.03-.33-4.33-1.62-1.29-3.05-.93-4.76,1.18Z"/><path class="cls-4" d="m104.92,902.16c-1.19,1.57-1.08,3.2.35,4.26,1.45,1.07,3.14,1.05,4.43-.73,1.19-1.66,1.04-3.04-.51-4.37-1.68-1.08-3.05-.76-4.27.85Z"/><path class="cls-4" d="m117.01,655.31c-1.15,1.42-.98,2.95.44,4.11,1.43,1.17,2.87.85,4.16-.39.95-1.53.96-3-.49-4.15-1.43-1.14-2.96-.98-4.11.44Z"/><path class="cls-4" d="m86.5,547.86c-1.31,1.46-.77,2.76.41,3.94,1.43.99,2.8,1.43,4.04-.16,1.19-1.53,1.14-3.17-.34-4.34-1.36-1.08-2.92-.76-4.11.57Z"/><path class="cls-4" d="m128.63,779.52c-1,1.49-.47,2.68.8,3.68,1.41,1.12,2.75,1.12,4.23-.62.64-1.28.84-2.95-.78-4.02-1.53-1.02-3.15-.69-4.25.96Z"/><path class="cls-4" d="m126.44,814.97c-1.02,1.48-.5,2.68.77,3.69,1.4,1.11,2.74,1.14,4.11-.44.88-1.44.95-3.1-.63-4.18-1.51-1.04-3.14-.7-4.26.93Z"/><path class="cls-4" d="m125.22,850.32c-1.11,1.5-.55,2.69,1.01,3.84,1.16.98,2.48.85,3.52-.56,1.06-1.45.96-3.08-.47-4.1-1.41-1-2.97-.65-4.06.82Z"/><path class="cls-4" d="m131.99,709.13c-1.11,1.51-.52,2.69,1.07,3.86,1.14.96,2.45.8,3.48-.61,1.05-1.45.95-3.08-.5-4.1-1.41-.99-2.96-.64-4.05.84Z"/><path class="cls-4" d="m130.33,743.85c-.97,1.36-.79,2.9.55,3.9,1.45,1.09,3.07.84,4.08-.67.92-1.37.54-2.79-.75-3.97-1.43-.64-2.89-.65-3.88.74Z"/><path class="cls-4" d="m118.72,620.45c-1.19,1.19-1.25,2.51.12,3.61,1.37,1.11,2.55.69,3.62-.69,1.03-1.33,1.15-2.33-.29-3.45-1.39-1.07-2.45-1.02-3.44.53Z"/><path class="cls-4" d="m103.81,566.67c-1.11,1.41-1.08,2.64.36,3.67,1.51,1.08,2.58.36,3.59-.96,1.1-1.44.86-2.47-.54-3.36-1.47-1.28-2.43-.61-3.41.65Z"/><path class="cls-4" d="m134.19,674.36c-.91,1.21-.89,2.42.19,3.36,1.22,1.06,2.49.82,3.53-.45,1.04-1.27,1.08-2.58-.21-3.58-1.29-1-2.52-.65-3.51.67Z"/><path class="cls-4" d="m123.98,885.27c-1.08,1.15-1.27,2.47-.15,3.6,1.18,1.2,2.44.8,3.39-.1,1.19-1.42,1.34-2.7.11-3.8-1.12-.99-2.32-.8-3.35.29Z"/><path class="cls-4" d="m147.14,763.25c-1.06,1.3-.34,2.11.62,2.91,1.11.84,2.16,1.31,3.18-.18.84-1.24.88-2.49-.26-3.39-1.26-1-2.5-.61-3.54.66Z"/><path class="cls-4" d="m121.88,920.65c-1.06,1.31-.31,2.1.64,2.91,1.11.84,2.17,1.3,3.18-.2.84-1.24.86-2.5-.28-3.38-1.27-.99-2.5-.6-3.54.67Z"/><path class="cls-4" d="m135.26,639.39c-.94.97.03,1.86,1.08,2.68,1.02.8,2.03,1.1,2.96-.22.94-1.34.97-2.65-.35-3.58-1.18-.84-2.41-.46-3.69,1.13Z"/><path class="cls-4" d="m145.9,798.44c-1.2,1.32-.59,2.26,1.1,3.57.59.52,1.65.73,2.61-.72.82-1.25.8-2.49-.35-3.37-1.16-.88-2.35-.58-3.36.53Z"/><path class="cls-4" d="m144.49,833.24c-.95.98-.81,2.17.1,3.11.99,1.01,2.19.85,3.01-.16.79-.97.63-2.14-.35-3.26-.87-.49-1.93-.55-2.76.31Z"/><path class="cls-4" d="m149.55,727.85c-.96.98-.83,2.17.07,3.11.98,1.02,2.19.86,3.02-.13.8-.96.65-2.13-.34-3.28-.85-.47-1.91-.56-2.75.3Z"/><path class="cls-4" d="m151.17,692.74c-.78,1.03-.85,1.89.27,2.71,1.18.86,1.92.25,2.66-.67.82-1.03.82-1.9-.57-2.93-.86-.61-1.63-.08-2.36.89Z"/><path class="cls-4" d="m153.18,657.56c-.66.83-.55,1.58.27,2.24.85.68,1.68.97,2.48-.09.65-.9.69-1.83-.22-2.54-.9-.7-1.81-.5-2.53.4Z"/><path class="cls-4" d="m164.75,781.8c-.79,1.02-.35,1.76.54,2.41.85.62,1.6.54,2.24-.3.7-.92.56-1.78-.22-2.59-.99-.54-1.85-.44-2.56.47Z"/><path class="cls-4" d="m141.33,904.18c-.79,1.02-.35,1.76.54,2.41.85.62,1.6.54,2.24-.3.7-.92.56-1.78-.22-2.59-.99-.54-1.85-.44-2.56.47Z"/><path class="cls-4" d="m142.63,868.58c-.68.89-.61,1.84.23,2.58.93.83,1.96.82,2.8-.15.82-.96.69-1.94-.25-2.82-1.02-.68-1.99-.62-2.77.39Z"/><path class="cls-4" d="m166.25,747.36c-.48.54.26,1.06.83,1.51.56.45,1.28,1.14,1.94.26.61-.82.88-1.89-.09-2.6-.81-.6-1.66-.16-2.67.83Z"/><path class="cls-4" d="m162.76,817.22c-.64.86.21,1.39.81,1.81.6.41,1.3,1.02,1.89-.04.45-.86.65-1.79-.17-2.4-.95-.71-1.94-.18-2.54.63Z"/><path class="cls-4" d="m161.62,852.33c-1.01.83-.21,1.39.32,1.85.6.52,1.34,1.38,2.12.2.52-.79.59-1.63-.08-2.45-.87-.49-1.61-.2-2.35.4Z"/><path class="cls-4" d="m168.02,711.61c-.95.84-.17,1.39.37,1.85.61.51,1.35,1.36,2.11.14.5-.81.56-1.64-.12-2.43-.9-.47-1.65-.19-2.37.44Z"/><path class="cls-4" d="m1366.25,278.09c-2.76-.73-5.9.26-7.57,2.53-2.33,3.16-1.93,8.26,1.11,10.64,1.77,1.38,4.23,1.75,6.46,1.2v-14.37Z"/><path class="cls-4" d="m1366.25,242.7c-2.1.09-4.16,1.05-5.43,2.77-2.32,3.15-1.91,8.28,1.13,10.63,1.21.94,2.74,1.39,4.29,1.43v-14.83Z"/><path class="cls-4" d="m1366.25,208.33c-.85.33-1.61.84-2.2,1.56-3.03,3.7-2.81,8.62.51,11.29.52.42,1.1.72,1.69.97v-13.82Z"/><path class="cls-4" d="m1366.25,314.09c-2.93-2.05-7.33-1.39-9.79,1.57-2.78,3.33-2.59,7.17.47,9.71,3.28,2.71,6.81,2.83,9.32.45v-11.72Z"/><path class="cls-4" d="m1354.19,360.75c3.13,2.67,7.37,2.36,9.99-.74,2.76-3.26,2.56-7.7-.47-10.38-2.72-2.41-7.63-1.87-10.11,1.11-2.71,3.26-2.47,7.4.58,10.01Z"/><path class="cls-4" d="m1366.25,175.39c-.12.12-.25.22-.36.35-2.44,2.91-2.22,6.89.36,9.5v-9.85Z"/><path class="cls-4" d="m1343.51,272.21c2.89,2.34,7.55,1.82,9.91-1.16,2.6-3.29,2.33-7.26-1.18-9.75-2.6-2.62-7.34-2.25-9.53.72-2.4,3.24-2.18,7.78.8,10.19Z"/><path class="cls-4" d="m1341,307.03c2.78,2.2,7.49,1.66,9.71-1.11,2.7-3.36,2.26-7.11-1.14-9.83-3.32-2.65-6.96-2.27-9.61,1.02-2.32,2.88-1.82,7.66,1.04,9.92Z"/><path class="cls-4" d="m1345.42,236.79c2.51,2.36,7.49,2.27,9.71-.52,2.54-3.2,3.58-6.28-.49-9.8-3.17-2.75-6.19-3.23-9.62.36-2.52,2.72-2.33,7.4.4,9.97Z"/><path class="cls-4" d="m1366.25,438.7c-.1.1-.22.19-.31.3-2.89,3.51-2.81,7.73.26,10.31.02.01.03.02.05.03v-10.65Z"/><path class="cls-4" d="m1338.77,341.97c2.84,2.41,7.52,1.94,9.82-1.15,2.49-3.33,2.3-6.5-1.12-9.4-3.25-2.84-7.28-1.97-9.14.45-2.68,3.47-2.54,7.57.44,10.1Z"/><path class="cls-4" d="m1348.32,202.11c2.89,2.39,7.53,1.88,9.82-1.22,2.43-3.3,2.23-6.36-.97-9.21-3.26-2.66-6.9-2.6-9.16.13-2.9,3.51-2.76,7.75.32,10.3Z"/><path class="cls-4" d="m1351.36,386.19c-2.39,3.18-1.93,7.55,1.04,9.86,2.92,2.28,7.38,1.76,9.67-1.12,2.3-2.89,1.83-7.35-1.03-9.68-2.84-2.31-7.58-1.85-9.68.94Z"/><path class="cls-4" d="m1351.5,166.52c2.92,2.4,6.59,1.85,9.22-.89,2.51-2.63,2.27-6.81-.56-9.38-2.77-2.51-6.81-2.04-9.25.94-2.58,3.14-2.34,6.92.59,9.33Z"/><path class="cls-4" d="m1336.51,376.53c2.91,2.35,6.78,1.86,9.2-1.17,2.35-2.92,2.07-6.84-.65-9.23-2.68-2.36-6.95-1.83-9.38,1.16-2.44,3-2.09,6.88.83,9.24Z"/><path class="cls-4" d="m1350.02,430.41c2.91,2.36,6.78,1.89,9.21-1.13,2.41-2.99,2.02-7.32-.84-9.42-2.94-2.15-6.78-1.61-9.16,1.3-2.45,3-2.12,6.88.79,9.24Z"/><path class="cls-4" d="m1330.22,217.77c2.63,2.23,6.65,1.95,8.95-.63,2.37-2.66,2.08-6.84-.64-9.16-2.63-2.23-6.65-1.95-8.95.63-2.37,2.66-2.08,6.85.64,9.16Z"/><path class="cls-4" d="m1322.7,323.13c2.69,2.02,6.95,1.47,9.07-1.21,2.38-3.02,1.93-6.41-1.18-8.9-2.31-2.44-6.75-1.98-9.1,1.08-2.01,2.62-.97,7.39,1.22,9.03Z"/><path class="cls-4" d="m1324.66,287.86c2.68,2.31,6.83,1.92,9.11-.85,2.28-2.77,1.88-6.84-.9-9.1-2.67-2.17-6.76-1.87-8.85.66-2.45,2.96-2.17,6.87.64,9.29Z"/><path class="cls-4" d="m1327.34,253.13c2.73,2.26,6.85,1.82,9.09-.99,2.24-2.8,1.77-6.86-1.04-9.09-2.69-2.13-6.78-1.76-8.84.8-2.4,2.98-2.07,6.9.79,9.28Z"/><path class="cls-4" d="m1353.85,131.44c2.68,2.08,6.99,1.5,9.07-1.23,2.24-2.94,1.75-6.46-1.2-8.79-2.96-2.33-6.49-1.96-8.82.92-2.15,2.66-1.69,7.05.95,9.1Z"/><path class="cls-4" d="m1366.25,472.57c-1.14.34-2.21,1.04-3.09,2.1-2.21,2.64-1.83,6.98.8,9.12.67.55,1.46.92,2.3,1.12v-12.34Z"/><path class="cls-4" d="m1320.2,357.82c2.63,2.01,6.63,1.54,8.7-1.01,2.14-2.64,1.65-6.85-1.03-8.91-2.63-2.01-6.63-1.54-8.7,1.01-2.14,2.64-1.65,6.85,1.03,8.91Z"/><path class="cls-4" d="m1332.5,182.58c2.45,2.06,6.95,1.53,9.06-1.05,2.24-2.73,1.64-7.08-.87-8.56-3.11-2.56-6.51-2.33-8.91.58-2.12,2.57-1.77,6.94.72,9.02Z"/><path class="cls-4" d="m1333.92,411.2c2.61,2.14,6.77,1.73,8.92-.89,2.14-2.61,1.73-6.77-.89-8.92-2.61-2.14-6.77-1.73-8.92.89-2.14,2.61-1.73,6.77.89,8.92Z"/><path class="cls-4" d="m1348.25,465.12c2.82,2.28,5.91,1.93,8.25-.92,2.58-3.15,2.38-6.31-.56-8.67-2.8-2.24-5.91-1.91-8.19.87-2.68,3.27-2.51,6.28.5,8.71Z"/><path class="cls-4" d="m1334.92,138.82c-2.52,2.99-2.34,6.29.46,8.6,2.68,2.2,5.96,1.94,8.17-.66,2.58-3.03,2.46-6.43-.31-8.8-2.47-2.11-6.15-1.73-8.33.85Z"/><path class="cls-4" d="m1331.76,446.49c2.65,2.12,6.07,1.74,8.23-.92,2.33-2.86,2.09-6.62-.55-8.7-2.67-2.1-6.31-1.52-8.61,1.38-2.12,2.67-1.73,6.1.93,8.23Z"/><path class="cls-4" d="m1318.09,392.48c2.68,2.23,5.97,2,8.18-.57,2.62-3.06,2.54-6.35-.23-8.81-2.38-2.12-6.19-1.77-8.34.77-2.54,3-2.4,6.3.38,8.61Z"/><path class="cls-4" d="m1309.17,268.51c2.76,2.38,6.11,2.16,8.39-.54,2.55-3.02,2.4-6.49-.37-8.79-2.54-2.11-6.12-1.71-8.32.91-2.43,2.9-2.31,6.16.3,8.41Z"/><path class="cls-4" d="m1306.74,303.53c2.58,2.12,6.16,1.79,8.29-.75,2.15-2.57,1.87-6.15-.65-8.3-2.55-2.18-6.14-1.94-8.31.55-2.29,2.62-1.99,6.32.67,8.51Z"/><path class="cls-4" d="m1314.12,198.71c2.42,2.03,6.34,1.57,8.45-.98,1.99-2.42,1.74-6.32-.54-8.4-2.21-2.02-6.46-1.53-8.52.98-2.14,2.61-1.87,6.32.61,8.4Z"/><path class="cls-4" d="m1310.67,225.27c-2.11,2.59-1.76,6.16.8,8.29,2.57,2.14,6.15,1.83,8.3-.7,2.24-2.64,1.88-6.34-.82-8.49-2.61-2.08-6.17-1.69-8.28.9Z"/><path class="cls-4" d="m1366.25,90.63c-.24-1.38-.97-2.68-2.21-3.66-2.61-2.06-6.18-1.65-8.27.95-2.1,2.6-1.73,6.16.85,8.28,2.58,2.12,6.16,1.8,8.29-.75.74-.88,1.16-1.87,1.34-2.89v-1.94Z"/><path class="cls-4" d="m1303.95,338.81c2.47,1.9,6.33,1.37,8.29-1.14,2.06-2.65,1.61-5.93-1.12-8.08-2.66-2.09-6.06-1.71-8.1.91-1.94,2.49-1.5,6.43.93,8.31Z"/><path class="cls-4" d="m1366.25,508.59c-1.91-.34-3.82.35-5.22,2.06-2.02,2.47-1.68,6.35.72,8.33,1.25,1.03,2.91,1.38,4.5,1.15v-11.54Z"/><path class="cls-4" d="m1337.38,103.55c-2.37,2.85-2.2,6.79.38,8.75,2.37,1.8,6.21,1.34,8.07-1.08,2.03-2.63,2.07-5.82-.98-7.93-2.6-2.1-5.59-1.99-7.47.26Z"/><path class="cls-4" d="m1316.11,154.86c-2.29,2.77-2.21,6.46.19,8.56,2.27,1.99,6.37,1.58,8.3-.93,2.05-2.68,1.87-5.72-.78-7.76-2.85-2.2-5.77-2.22-7.71.13Z"/><path class="cls-4" d="m1345.76,499.85c2.34,1.83,6.17,1.42,8.08-1.01,2.04-2.6,2.14-5.8-.91-7.94-2.69-2.19-5.77-2.02-7.68.4-2.2,2.79-1.97,6.61.51,8.55Z"/><path class="cls-4" d="m1315.71,427.29c2.33,1.84,6.17,1.44,8.08-.98,2.04-2.58,2.17-5.78-.88-7.94-2.7-2.2-5.77-2.05-7.68.37-2.21,2.79-1.99,6.59.48,8.55Z"/><path class="cls-4" d="m1301.65,373.65c2.3,2.03,6.13,1.72,8.12-.67,1.97-2.37,1.55-6.2-.87-8.09-2.36-1.84-5.98-1.45-7.89.85-1.89,2.28-1.6,5.93.64,7.91Z"/><path class="cls-4" d="m1329.52,480.82c2.61,2.1,5.33,1.75,7.53-.97,2.22-2.75,2.01-5.66-.58-7.73-2.53-2.03-5.46-1.59-7.67,1.14-2.18,2.71-1.93,5.43.71,7.56Z"/><path class="cls-4" d="m1292.84,241.79c-2.45,2.96-2.34,5.51.34,7.73,2.7,2.24,5.28,2.01,7.49-.65,2.46-2.97,2.33-5.72-.38-7.91-2.53-2.05-5.32-1.73-7.45.83Z"/><path class="cls-4" d="m1366.25,51.96s-.07-.07-.11-.1c-2.66-2.07-5.32-1.65-7.61,1.2-2.22,2.76-1.99,5.32.67,7.49,2.52,2.06,4.88,1.92,7.06-.36v-8.22Z"/><path class="cls-4" d="m1290.46,284.45c2.4,2.03,5.74,1.74,7.74-.66,2-2.42,1.67-5.75-.77-7.73-2.35-1.9-5.57-1.62-7.53.64-2.06,2.38-1.82,5.73.56,7.75Z"/><path class="cls-4" d="m1319.34,128.39c2.46,1.97,5.53,1.54,7.59-1.06,1.81-2.3,1.5-5.95-.65-7.64-2.24-1.76-5.86-1.15-7.78,1.29-1.91,2.43-1.56,5.48.84,7.4Z"/><path class="cls-4" d="m1287.56,312.23c-1.83,2.39-1.39,5.61,1.01,7.48,2.38,1.86,5.6,1.47,7.5-.91,1.9-2.38,1.55-5.58-.8-7.51-2.44-2-5.78-1.59-7.7.93Z"/><path class="cls-4" d="m1295.42,214.56c2.38,1.9,5.58,1.55,7.51-.8,2-2.44,1.59-5.78-.93-7.7-2.39-1.83-5.61-1.39-7.48,1.01-1.86,2.38-1.47,5.6.91,7.5Z"/><path class="cls-4" d="m1347.97,76.31c2.1-2.41,1.9-6.05-.44-7.88-2.11-1.65-5.53-1.37-7.2.59-2.24,2.62-2.18,6,.14,7.97,2.15,1.84,5.58,1.52,7.51-.68Z"/><path class="cls-4" d="m1299.46,408.29c2.35,1.89,5.65,1.5,7.51-.88,1.85-2.37,1.42-5.66-.98-7.5-2.3-1.76-5.47-1.38-7.31.86-1.92,2.33-1.58,5.63.78,7.52Z"/><path class="cls-4" d="m1285.84,354.26c2.12,1.82,5.68,1.48,7.53-.73,2.13-2.54,1.88-5.12-.71-7.29-2.61-2.19-5.18-2.03-7.31.46-1.88,2.19-1.65,5.72.49,7.56Z"/><path class="cls-4" d="m1313.32,461.65c2.17,1.8,5.69,1.41,7.52-.84,2.08-2.55,1.79-5.14-.81-7.28-2.63-2.16-5.19-1.96-7.3.57-1.85,2.22-1.57,5.75.59,7.54Z"/><path class="cls-4" d="m1366.25,545.25c-.06-.05-.11-.11-.18-.16-2.65-2.08-5.23-1.8-7.28.81-1.78,2.26-1.39,5.81.83,7.52,1.91,1.47,4.74,1.3,6.62-.21v-7.95Z"/><path class="cls-4" d="m1343.45,534.13c1.87,1.6,5.59,1.17,7.32-.78,1.83-2.08,1.69-5.05-.33-6.79-3.03-2.61-5.17-2.63-7.36-.08-2.53,1.89-1.24,6.27.37,7.65Z"/><path class="cls-4" d="m1308.56,143.31c1.85-2.4,1.51-4.97-.92-6.96-2.77-2.27-4.82-1.97-7.17.46-2.01,2.07-1.04,6.06.6,7.48,1.95,1.7,5.85,1.15,7.5-.99Z"/><path class="cls-4" d="m1329.16,92.75c1.7-2.03,1.44-5.32-.55-7.1-2.03-1.82-5.54-1.55-7.31.57-1.7,2.03-1.44,5.32.55,7.1,2.03,1.82,5.54,1.55,7.31-.57Z"/><path class="cls-4" d="m1297.32,172.18c-1.83,2.18-1.58,5.46.54,7.34,2.13,1.88,5.42,1.73,7.35-.34,2.02-2.16,1.86-5.61-.35-7.56-2.22-1.96-5.65-1.7-7.54.56Z"/><path class="cls-4" d="m1283.94,230.06c1.75-2.09,1.47-5.27-.63-7.03-2.09-1.75-5.27-1.47-7.03.63-1.75,2.09-1.47,5.27.63,7.03,2.09,1.75,5.27,1.47,7.03-.63Z"/><path class="cls-4" d="m1366.25,16.7c-1.75-.46-3.56,0-4.76,1.42-1.86,2.18-1.68,5.64.39,7.42,1.16,1,2.82,1.27,4.37.92v-9.76Z"/><path class="cls-4" d="m1282.55,382.01c-1.84,2.23-1.58,5.68.55,7.41,2.04,1.65,5.42,1.24,7.23-.87,1.71-2,1.33-5.23-.83-6.98-2.25-1.83-5.23-1.64-6.96.45Z"/><path class="cls-4" d="m1297.39,443.18c1.99,1.69,5.37,1.34,7.24-.76,1.79-2.01,1.46-5.2-.71-6.99-2.24-1.85-5.25-1.7-6.97.34-1.86,2.2-1.65,5.64.44,7.42Z"/><path class="cls-4" d="m1273.83,258.09c-1.86,2.19-1.66,5.64.42,7.42,2.06,1.77,5.68,1.29,7.42-.97,1.57-2.04,1.18-5.08-.88-6.77-2.24-1.85-5.25-1.71-6.97.32Z"/><path class="cls-4" d="m1327.61,515.8c2.09,1.62,5.14,1.3,6.85-.72,1.79-2.1,1.5-5.31-.64-7.07-2.13-1.75-5.34-1.42-7.06.74-1.72,2.16-1.34,5.36.84,7.05Z"/><path class="cls-4" d="m1272.17,300.64c2.12,1.76,5.34,1.43,7.06-.72,1.66-2.06,1.39-5.12-.59-6.87-2.06-1.82-5.29-1.59-7.08.51-1.79,2.09-1.51,5.31.61,7.07Z"/><path class="cls-4" d="m1286.72,194.56c2.05-2.48,1.96-5.12-.24-6.98-2.23-1.89-4.9-1.53-6.91.92-1.97,2.41-1.76,4.9.59,6.78,2.23,1.79,4.71,1.52,6.56-.72Z"/><path class="cls-4" d="m1269.26,328.45c-1.98,2.41-1.79,4.91.53,6.79,2.23,1.81,4.72,1.56,6.57-.66,2.07-2.49,2-5.11-.18-6.99-2.21-1.9-4.93-1.56-6.91.86Z"/><path class="cls-4" d="m1350.04,41.25c2.22-2.62,2.13-5.28-.26-7.18-2.16-1.72-4.82-1.37-6.7.89-2.02,2.42-1.88,4.93.38,6.8,2.23,1.85,4.75,1.65,6.58-.51Z"/><path class="cls-4" d="m1310.18,108.07c2.13-2.43,1.86-4.65-.41-6.95-1.9-1.92-4.84-1.42-6.65.77-2,2.41-1.82,5.14.47,6.95,2.11,1.67,4.75,1.34,6.59-.77Z"/><path class="cls-4" d="m1311.23,496.86c2.1,1.69,4.77,1.39,6.59-.74,1.98-2.31,1.86-5.18-.32-6.99-2.08-1.73-4.9-1.4-6.7.77-2,2.41-1.83,5.14.42,6.95Z"/><path class="cls-4" d="m1281.11,424.24c2.05,1.72,4.9,1.43,6.71-.7,1.77-2.07,1.62-5.19-.32-6.92-1.73-1.54-5.04-1.21-6.67.66-1.96,2.26-1.85,5.17.27,6.96Z"/><path class="cls-4" d="m1288.93,159.34c1.76-2.07,1.61-5.2-.34-6.91-1.71-1.5-5.07-1.16-6.66.67-1.96,2.26-1.84,5.17.29,6.96,2.05,1.72,4.9,1.42,6.71-.72Z"/><path class="cls-4" d="m1294.42,471.14c-1.59,2.01-1.3,4.96.64,6.56,1.94,1.6,4.89,1.31,6.56-.64,1.83-2.14,1.58-4.74-.64-6.56-2.25-1.84-4.8-1.59-6.56.64Z"/><path class="cls-4" d="m1331.45,56.71c1.78-2.21,1.44-4.75-.86-6.54-2.19-1.7-4.61-1.46-6.35.64-1.72,2.07-1.41,5.18.68,6.76,2,1.52,4.93,1.14,6.54-.86Z"/><path class="cls-4" d="m1262.76,280.54c1.48-1.84,1.17-4.83-.64-6.35-1.9-1.58-5.08-1.2-6.54.77-1.41,1.9-1.01,4.9.85,6.32,1.87,1.44,4.86,1.09,6.33-.75Z"/><path class="cls-4" d="m1274.18,369.75c1.7-2.03,1.35-5.12-.76-6.73-2.02-1.53-4.94-1.16-6.51.84-1.57,2-1.24,4.92.74,6.52,1.97,1.6,4.9,1.31,6.53-.63Z"/><path class="cls-4" d="m1357.89,588.06c1.81,1.36,5.04.9,6.52-.93,1.6-1.97,1.29-4.56-.73-6.22-2.24-1.84-4.61-1.77-6.18.18-1.77,2.2-1.58,5.49.39,6.97Z"/><path class="cls-4" d="m1341.68,568.89c1.76,1.41,4.99,1.02,6.54-.79,1.68-1.97,1.33-4.69-.82-6.42-2.11-1.7-4.44-1.6-5.96.23-1.81,2.19-1.7,5.43.24,6.98Z"/><path class="cls-4" d="m1265.53,245.64c1.6-1.96,1.3-4.57-.72-6.23-2.24-1.84-4.61-1.78-6.18.17-1.77,2.2-1.59,5.49.38,6.97,1.81,1.36,5.03.91,6.52-.92Z"/><path class="cls-4" d="m1260.34,315.91c1.35-1.99,1.96-3.97-.86-6.16-1.99-1.59-4.41-1.57-5.79.06-1.86,2.19-1.78,5.43.18,7,1.82,1.46,5.08,1.13,6.46-.9Z"/><path class="cls-4" d="m1267.65,210.32c1.8-2.68,1.3-4.46-.91-6.16-1.99-1.58-4.41-1.53-5.78.1-1.86,2.22-1.75,5.45.23,6.99,1.84,1.44,5.1,1.08,6.46-.94Z"/><path class="cls-4" d="m1291.51,124.25c1.81-2.68,1.3-4.46-.9-6.16-1.99-1.58-4.41-1.54-5.78.1-1.86,2.22-1.75,5.44.22,7,1.83,1.44,5.1,1.08,6.46-.93Z"/><path class="cls-4" d="m1325.19,550.02c1.85,1.57,4.74,1.31,6.28-.57,1.47-1.79,1.27-4.52-.45-6.09-1.79-1.63-4.69-1.47-6.3.36-1.6,1.82-1.39,4.72.46,6.29Z"/><path class="cls-4" d="m1278.86,458.56c2.27,1.88,4.04,1.69,5.93-.64,2.02-2.49,1.92-4.34-.35-6.15-2.21-1.77-4.08-1.45-6.07,1.05-1.78,2.22-1.62,3.99.49,5.74Z"/><path class="cls-4" d="m1265.05,398.65c-2,2.39-1.93,4.17.23,5.98,2.27,1.9,4.06,1.73,5.94-.56,2.01-2.45,1.93-4.37-.27-6.16-2.15-1.75-4.02-1.51-5.9.74Z"/><path class="cls-4" d="m1312.28,72.96c2.05-2.49,2.01-4.35-.16-6.17-2.25-1.88-4.07-1.63-6.09.86-1.91,2.35-1.75,4.11.53,5.94,2.15,1.73,3.93,1.53,5.72-.64Z"/><path class="cls-4" d="m1269.8,175.49c1.77-2.08,1.63-4.71-.33-6.21-1.69-1.3-4.32-.97-5.76.72-1.88,2.21-1.84,4.3.12,6.02,2.02,1.77,4.19,1.58,5.98-.52Z"/><path class="cls-4" d="m1308.99,531.19c2.07,1.66,4.15,1.36,5.94-.85,1.58-1.96,1.4-4.53-.44-6-1.77-1.42-4.42-1.03-5.95.87-1.79,2.21-1.63,4.31.46,5.98Z"/><path class="cls-4" d="m1257.5,350.4c1.51-1.9,1.27-4.61-.52-5.99-1.8-1.38-4.42-.96-5.94.94-1.76,2.21-1.58,4.31.53,5.97,2.07,1.63,4.15,1.3,5.93-.93Z"/><path class="cls-4" d="m1333.76,21.4c1.23-1.54,1.01-4.73-.4-5.93-1.49-1.26-4.77-.78-6.08.89-1.6,2.04-1.43,4.3.46,5.87,1.99,1.65,4.31,1.33,6.03-.83Z"/><path class="cls-4" d="m1293.11,506.19c-1.61,1.78-1.65,4.52-.08,6.04,1.58,1.53,4.47,1.36,6.01-.36,1.57-1.75,1.47-4.77-.2-6.2-1.41-1.21-4.4-.94-5.73.53Z"/><path class="cls-4" d="m1293.25,89c1.44-1.69,1.35-4.48-.18-5.99-1.33-1.32-4.59-1.02-5.95.54-1.56,1.8-1.5,4.57.13,6.03,1.64,1.47,4.49,1.2,5.99-.58Z"/><path class="cls-4" d="m1269.18,439.1c1.4-1.71,1.23-4.59-.35-5.98-1.47-1.3-4.56-.93-5.94.71-1.52,1.82-1.38,4.6.31,6.02,1.69,1.42,4.49,1.07,5.98-.75Z"/><path class="cls-4" d="m1254.92,385.06c1.45-1.89,1.15-3.69-.91-5.35-2.21-1.78-3.89-1.62-5.58.51-1.37,1.74-1.08,4.6.58,5.87,1.72,1.3,4.48.82,5.91-1.03Z"/><path class="cls-4" d="m1246.13,261.24c1.47-1.89,1.17-3.69-.88-5.35-2.22-1.79-3.9-1.65-5.58.48-1.38,1.74-1.11,4.59.55,5.87,1.71,1.32,4.47.85,5.91-1Z"/><path class="cls-4" d="m1248.38,226.82c1.31-1.56,1.13-4.15-.38-5.54-1.58-1.45-4.35-1.25-5.75.41-1.39,1.65-1.09,4.41.61,5.72,1.63,1.26,4.2.98,5.52-.59Z"/><path class="cls-4" d="m1243.88,296.38c1.46-2.02.97-3.76-.82-5.26-1.86-1.55-4.1-1.32-5.51.51-1.36,1.76-1.06,4.5.64,5.75,1.73,1.27,4.39.81,5.7-.99Z"/><path class="cls-4" d="m1314.52,37.47c1.37-1.8.99-4.05-.95-5.47-1.93-1.41-3.74-1.24-5.29.59-1.44,1.7-1.15,4.45.52,5.75,1.69,1.31,4.37.9,5.72-.87Z"/><path class="cls-4" d="m1271.87,140.39c1.38-1.68,1.12-4.34-.56-5.72-1.68-1.38-4.34-1.12-5.72.56-1.38,1.68-1.12,4.34.56,5.72,1.68,1.38,4.34,1.12,5.72-.56Z"/><path class="cls-4" d="m1276.97,493.76c1.72,1.28,4.39.84,5.7-.96,1.46-2.01,1-3.76-.79-5.27-1.85-1.55-4.09-1.34-5.52.48-1.37,1.75-1.08,4.49.61,5.75Z"/><path class="cls-4" d="m1250.56,191.3c1.21-1.75,1.68-3.62-.67-5.19-1.98-1.63-3.75-1.52-5.32.45-1.42,1.77-1.16,4.23.59,5.56,1.71,1.3,4.11,1.04,5.4-.82Z"/><path class="cls-4" d="m1323.05,584.38c1.66,1.36,3.96,1.1,5.45-.62,1.58-1.82,1.35-3.71-1.41-5.94-1.07-.76-2.81-1.15-4.46.98-1.42,1.83-1.28,4.19.42,5.59Z"/><path class="cls-4" d="m1274.39,105.25c1.24-1.74,1.72-3.6-.65-5.23-1.93-1.59-3.73-1.5-5.28.42-1.44,1.78-1.21,4.22.52,5.57,1.7,1.33,4.08,1.1,5.41-.75Z"/><path class="cls-4" d="m1338.72,597.98c-1.44,1.78-1.2,4.22.53,5.56,1.71,1.32,4.09,1.09,5.41-.76,1.24-1.74,1.7-3.6-.64-5.22-1.95-1.62-3.73-1.52-5.3.42Z"/><path class="cls-4" d="m1240.99,331.26c1.25-1.72,1.76-3.58-.78-5.39-1.76-1.47-3.54-1.39-5.1.52-1.45,1.78-1.25,4.2.47,5.57,1.68,1.34,4.08,1.13,5.41-.7Z"/><path class="cls-4" d="m1355.11,616.72c-1.35,1.62-1.09,4.19.56,5.51,1.65,1.32,4.29,1.05,5.48-.67,1.28-1.85,1.09-3.72-.54-5.28-1.52-1.45-4.15-1.18-5.5.44Z"/><path class="cls-4" d="m1295.54,53.71c1.69-1.88,1.01-3.59-.32-5.06-1.36-1.52-3.79-1.09-5.22.66-1.41,1.77-1.51,3.48.29,5.06,1.74,1.52,3.59,1.18,5.25-.66Z"/><path class="cls-4" d="m1252.17,420.14c1.46-1.8,1.47-4.15-.31-5.23-1.66-1.01-3.57-1.5-5,.62-1.57,1.88-1.5,3.91.29,5.27,1.85,1.41,3.54,1.18,5.03-.65Z"/><path class="cls-4" d="m1265.61,474.18c1.85-1.84,1.4-3.87-.11-5.22-1.34-1.2-3.42-1.7-4.96.28-1.62,1.79-1.67,3.95-.02,5.32,1.77,1.46,3.45,1.26,5.09-.37Z"/><path class="cls-4" d="m1238.25,366.75c1.79-1.88,1.31-3.88-.26-5.2-1.41-1.19-3.47-1.59-4.96.43-1.6,1.83-1.58,3.96.14,5.3,1.82,1.42,3.48,1.14,5.07-.53Z"/><path class="cls-4" d="m1311.99,560.06c-1.63-1.03-3.54-1.6-5.01.5-1.6,1.88-1.56,3.9.17,5.28,1.82,1.45,3.53,1.24,5.03-.54,1.5-1.76,1.55-4.14-.19-5.24Z"/><path class="cls-4" d="m1252.86,156.54c1.34-1.69,1.22-3.45-.39-4.88-1.71-1.52-3.57-1.44-5.09.3-1.53,1.75-1.22,3.51.48,5.26,1.74,1.04,3.52,1.17,4.99-.68Z"/><path class="cls-4" d="m1291.12,546.77c1.83,1.21,3.68.95,5.05-.79,1.26-1.61,1.48-3.28-.47-4.46-1.74-1.59-3.3-2.14-4.93,0-1.34,1.77-1.34,4.13.35,5.25Z"/><path class="cls-4" d="m1229.38,242.84c1.22-1.57,1.04-3.37-.47-4.66-1.62-1.39-3.49-1.24-4.87.39-1.39,1.64-1,3.38.43,4.92,1.82,1.07,3.58,1.06,4.9-.64Z"/><path class="cls-4" d="m1226.75,277.7c1.26-1.76,1.18-3.33-.38-4.68-1.62-1.41-3.36-1.53-4.79.19-1.37,1.64-1.29,3.56.32,4.92,1.62,1.38,3.42.94,4.86-.43Z"/><path class="cls-4" d="m1235.68,401.28c1.35-1.79.82-3.44-.91-4.71-1.68-1.23-3.22-.92-4.69.75-.92,1.66-1,3.51.73,4.77,1.69,1.24,3.58.91,4.87-.81Z"/><path class="cls-4" d="m1224.21,312.41c1.33-1.97.97-3.57-.76-4.86-1.65-1.24-3.3-1.08-4.54.54-1.3,1.69-1.19,3.6.48,4.9,1.67,1.31,3.45.84,4.83-.58Z"/><path class="cls-4" d="m1279.51,527.48c1.34-1.95.99-3.55-.73-4.86-1.64-1.25-3.29-1.12-4.55.5-1.31,1.68-1.22,3.59.44,4.91,1.66,1.33,3.44.86,4.84-.55Z"/><path class="cls-4" d="m1255.43,121.59c1.33-1.97.97-3.57-.76-4.86-1.65-1.24-3.3-1.08-4.54.54-1.3,1.69-1.19,3.6.48,4.9,1.67,1.31,3.45.84,4.83-.58Z"/><path class="cls-4" d="m1249.45,454.87c1.33-1.55,1.15-3.2-.4-4.56-1.62-1.41-3.26-1.46-4.91.24-1.11,1.65-1.2,3.49.42,4.85,1.62,1.36,3.51,1.08,4.9-.54Z"/><path class="cls-4" d="m1231.66,207.48c1.35-1.79.82-3.44-.9-4.71-1.68-1.23-3.21-.92-4.62.66-1.04,1.74-1.05,3.59.66,4.85,1.68,1.24,3.57.91,4.87-.81Z"/><path class="cls-4" d="m1276.76,70.21c1.26-1.96.85-3.55-.89-4.82-1.68-1.22-3.32-1-4.53.63-1.27,1.71-1.13,3.62.57,4.89,1.69,1.26,3.47.79,4.85-.7Z"/><path class="cls-4" d="m1234.46,172.2c1-1.25,1.59-2.9-.52-4.41-1.08-1.17-2.66-1.76-4.14-.21-1.49,1.55-1.76,3.64-.15,5.15,1.51,1.42,3.54,1.06,4.82-.53Z"/><path class="cls-4" d="m1221.58,347.39c1.53-1.67,1.48-3.32-.14-4.59-1.27-.99-2.95-1.39-4.05.41-1.44,1.56-1.79,3.02-.02,4.5,1.54,1.29,2.82,1.19,4.22-.32Z"/><path class="cls-4" d="m1337.44,633.48c-1.27,1.5-1.45,2.89-.05,4.39,1.54,1.17,2.95,1.26,4.34-.31,1.37-1.55,1.43-3.24-.05-4.47-1.25-1.03-2.89-1.19-4.23.39Z"/><path class="cls-4" d="m1262.84,508.21c1.56-1.47.92-3.1-.49-4.2-1.47-1.15-3.05-1.03-4.33.77-1.15,1.62-1.25,2.9.35,4.22,1.73,1.44,3.13,1.05,4.47-.79Z"/><path class="cls-4" d="m1309.34,599.49c1.29-1.6.9-3.18-.39-4.23-1.49-1.21-3.19-.98-4.41.8-1.18,1.58-1.1,3.05.55,4.26,1.68,1.23,3.02.7,4.25-.83Z"/><path class="cls-4" d="m1233.11,435.35c1.01-1.06.59-2.75-.8-3.9-1.35-1.11-2.97-.87-4.2.66-1.25,1.54-1.35,2.99.23,4.31,1.58,1.32,3.02.99,4.76-1.07Z"/><path class="cls-4" d="m1321.45,618.92c1.65,1.15,3.01.89,4.3-.65,1.3-1.54,1.09-3.16-.19-4.26-1.4-1.19-3.09-1.09-4.42.56-1.27,1.58-1.18,2.98.31,4.35Z"/><path class="cls-4" d="m1257.63,85.61c1.35-1.54,1.08-3.15-.15-4.26-1.39-1.25-3.11-1.15-4.42.52-1.23,1.51-1.33,2.99.28,4.3,1.59,1.29,2.96.94,4.29-.56Z"/><path class="cls-4" d="m1236.42,136.82c1.22-1.54,1.15-3.16-.25-4.24-1.42-1.1-3.11-1.12-4.42.63-1.22,1.63-1.11,3,.41,4.36,1.64,1.11,3.02.82,4.27-.75Z"/><path class="cls-4" d="m1353.34,651.96c-1.23,1.52-1.31,3,.31,4.3,1.6,1.29,2.98.93,4.28-.59,1.33-1.54,1.09-3.15-.17-4.26-1.39-1.23-3.12-1.13-4.42.55Z"/><path class="cls-4" d="m1297.53,19.02c1.27-1.44,1.25-3.07-.19-4.37-1.53-1.39-3.22-1.3-4.56.3-1.24,1.49-1.01,3.02.39,4.41,1.53,1.1,3.08,1.12,4.37-.34Z"/><path class="cls-4" d="m1218.92,382.16c1.17-1.39,1.04-2.92-.34-4.1-1.4-1.19-2.83-.91-4.14.3-.98,1.5-1.02,2.97.39,4.14,1.39,1.17,2.93,1.04,4.1-.35Z"/><path class="cls-4" d="m1246.9,489.75c1.33-1.42.82-2.72-.32-3.93-1.4-1.01-2.75-1.48-4.02.07-1.22,1.49-1.2,3.13.24,4.33,1.33,1.11,2.89.82,4.1-.47Z"/><path class="cls-4" d="m1292.77,580.83c1.21-1.54.57-2.8-.97-4.09-1.21-.64-2.59-.98-3.71.65-1,1.46-.97,3.04.4,4.11,1.47,1.16,3.09.85,4.28-.67Z"/><path class="cls-4" d="m1210.11,258.32c1.03-1.46.53-2.66-.71-3.68-1.38-1.14-2.71-1.17-4.23.52-.67,1.26-.9,2.91.69,4.02,1.5,1.04,3.11.75,4.25-.86Z"/><path class="cls-4" d="m1213.07,223.09c1.04-1.45.55-2.65-.69-3.69-1.37-1.14-2.71-1.19-4.1.34-.91,1.41-1.01,3.06.53,4.17,1.48,1.07,3.11.77,4.26-.83Z"/><path class="cls-4" d="m1279.01,34.04c1.03-1.46.53-2.66-.71-3.68-1.38-1.14-2.71-1.17-4.11.39-.88,1.4-.99,3.05.57,4.15,1.49,1.05,3.11.75,4.25-.86Z"/><path class="cls-4" d="m1276.99,562.04c1.13-1.43.7-2.66-.76-3.77-1.21-1.07-2.52-1.05-3.62.34-1.11,1.41-1.06,3.03.32,4.1,1.37,1.06,2.94.76,4.06-.66Z"/><path class="cls-4" d="m1215.07,187.95c1.14-1.47.6-2.67-.92-3.84-1.14-1-2.45-.91-3.51.48-1.09,1.42-1.02,3.04.38,4.09,1.38,1.03,2.94.71,4.05-.73Z"/><path class="cls-4" d="m1205.2,328.28c1.14-1.48.57-2.67-.98-3.87-1.11-.98-2.42-.85-3.48.53-1.08,1.42-1.01,3.05.4,4.09,1.38,1.02,2.94.7,4.05-.75Z"/><path class="cls-4" d="m1207.63,293.77c1-1.33.85-2.86-.46-3.89-1.42-1.11-3.03-.91-4.08.57-.95,1.35-.6,2.76.66,3.96,1.41.67,2.86.72,3.88-.65Z"/><path class="cls-4" d="m1238.53,102.16c1.04-1.15.99-2.56-.13-3.64-1.23-1.18-2.61-1.03-3.9.14-.87,1.23-.94,2.56.19,3.63,1.23,1.18,2.71,1.11,3.84-.14Z"/><path class="cls-4" d="m1260.08,543.25c1.11-1.36,1.2-2.59-.19-3.66-1.41-1.08-2.55-.54-3.6.78-1.1,1.37-1.04,2.42.39,3.38,1.37,1.29,2.37.77,3.4-.5Z"/><path class="cls-4" d="m1216.45,416.81c1.21-1.16,1.3-2.47-.03-3.59-1.34-1.14-2.53-.74-3.62.61-1.05,1.3-1.2,2.29.22,3.44,1.36,1.1,2.42,1.07,3.43-.45Z"/><path class="cls-4" d="m1259.79,50.44c1.13-1.37,1.16-2.59-.24-3.66-1.45-1.1-2.55-.48-3.6.83-1.11,1.39-.97,2.43.45,3.38,1.38,1.31,2.36.69,3.39-.55Z"/><path class="cls-4" d="m1230.08,470.65c1.13-1.38,1.13-2.6-.28-3.66-1.47-1.1-2.56-.42-3.6.87-1.13,1.41-.91,2.44.46,3.36,1.43,1.31,2.4.66,3.41-.57Z"/><path class="cls-4" d="m1202.25,362.83c.93-1.18.94-2.39-.12-3.35-1.19-1.08-2.46-.87-3.53.37-1.07,1.24-1.13,2.54.13,3.57,1.26,1.03,2.49.7,3.51-.59Z"/><path class="cls-4" d="m1217.07,153.21c1.1-1.12,1.32-2.43.23-3.58-1.15-1.22-2.41-.85-3.37.03-1.22,1.38-1.4,2.66-.19,3.77,1.09,1.01,2.3.84,3.34-.22Z"/><path class="cls-4" d="m1191.33,274.09c1.08-1.27.39-2.09-.55-2.91-1.08-.86-2.12-1.35-3.17.11-.87,1.21-.93,2.46.18,3.38,1.23,1.02,2.48.67,3.54-.57Z"/><path class="cls-4" d="m1219.95,118.05c1.08-1.28.36-2.09-.57-2.91-1.09-.86-2.13-1.34-3.17.13-.86,1.22-.91,2.46.2,3.37,1.24,1.01,2.48.65,3.53-.59Z"/><path class="cls-4" d="m1214.06,451.33c.9-.94-.25-1.78-1.22-2.59-1.03-.86-2.03-.97-2.93.3-.86,1.22-.91,2.46.2,3.38,1.25,1.03,2.53.65,3.96-1.09Z"/><path class="cls-4" d="m1243.63,524.43c1.07-1.21.52-2.09-.77-3.15-.77-.59-1.79-1.22-2.88.26-.89,1.2-.97,2.44.1,3.38,1.21,1.06,2.47.73,3.55-.49Z"/><path class="cls-4" d="m1200.41,397.6c.96-.94,0-1.85-1.02-2.69-1-.82-1.99-1.14-2.95.16-.96,1.31-1.02,2.61.27,3.57,1.16.86,2.39.51,3.7-1.04Z"/><path class="cls-4" d="m1193.34,239.11c1.23-1.29.63-2.23-1.02-3.58-.58-.53-1.63-.76-2.61.66-.85,1.22-.85,2.46.28,3.37,1.13.91,2.32.63,3.35-.45Z"/><path class="cls-4" d="m1240.69,66.49c1.22-1.37.41-2.24-.33-2.88-1.31-1.04-2.28-1.4-3.25-.11-.97,1.3-1.04,2.61.25,3.57,1.14.86,2.34.53,3.33-.59Z"/><path class="cls-4" d="m1321.99,653.28c.87-1,.77-2.23-.22-3.1-1-.88-2.23-.77-3.1.22-.88,1-.66,2.13.2,3.15,1.1.69,2.25.73,3.12-.27Z"/><path class="cls-4" d="m1195.52,204.52c.96-.96.86-2.14-.03-3.1-.96-1.03-2.16-.89-3,.09-.81.95-.68,2.11.28,3.25.85.51,1.91.59,2.76-.25Z"/><path class="cls-4" d="m1289.64,615.97c.96-.96.86-2.14-.03-3.1-.96-1.03-2.16-.89-3,.09-.81.95-.68,2.11.28,3.25.85.51,1.91.59,2.76-.25Z"/><path class="cls-4" d="m1306.22,634.54c.89-1,.76-2.19-.2-3.09-1.01-.95-2.19-.81-2.99.26-.74,1.01-.56,2.14.3,3.11,1.03.63,2.1.59,2.89-.28Z"/><path class="cls-4" d="m1227.22,505.43c.64-1.23.5-2.34-.57-3.12-.96-.69-2.09-.62-2.77.4-.76,1.14-.69,2.43.53,3.24.99.65,2.03.31,2.81-.52Z"/><path class="cls-4" d="m1188.14,309.26c.98-.96.87-2.14,0-3.09-.95-1.04-2.16-.91-3,.06-.82.94-.69,2.11.27,3.27.83.49,1.89.6,2.74-.24Z"/><path class="cls-4" d="m1338.57,671.75c.83-.92.62-1.99-.24-2.82-1-.97-2.19-.92-3.04.08-.81.96-.69,2.13.19,3.15,1.1.63,2.23.53,3.08-.41Z"/><path class="cls-4" d="m1355.02,690.47c.88-.89.71-1.97-.11-2.83-.95-.99-2.15-1.04-3.05-.05-.85.93-.77,2.11.14,3.24,1,.54,2.12.56,3.02-.36Z"/><path class="cls-4" d="m1197.01,432.45c.77-.97.99-1.83-.11-2.71-1.11-.89-1.93-.47-2.66.52-.86.93-.99,1.83.1,2.7,1.1.88,1.89.47,2.67-.51Z"/><path class="cls-4" d="m1185.76,344.16c.8-1.01.88-1.86-.21-2.7-1.16-.89-1.9-.3-2.66.61-.84,1.01-.86,1.88.5,2.92.84.63,1.62.12,2.37-.83Z"/><path class="cls-4" d="m1257.02,577.62c.74-.94,1.12-1.79.01-2.73-1.06-.9-1.87-.59-2.69.39-.78.94-1.08,1.81-.27,2.51,1.3,1.1,2.14.85,2.94-.17Z"/><path class="cls-4" d="m1221.61,82.63c.77-.97.99-1.83-.11-2.71-1.11-.89-1.93-.47-2.66.52-.86.93-.99,1.83.1,2.7,1.1.88,1.89.47,2.67-.51Z"/><path class="cls-4" d="m1182.97,379.12c.68-.81.59-1.56-.21-2.23-.83-.7-1.65-1.01-2.47.04-.67.88-.73,1.81.16,2.53.88.72,1.79.54,2.53-.34Z"/><path class="cls-4" d="m1174.22,255.25c.8-1,.38-1.75-.48-2.41-.83-.64-1.58-.57-2.23.25-.72.9-.6,1.76.16,2.58.97.56,1.83.48,2.56-.42Z"/><path class="cls-4" d="m1240.39,559.07c.68-.77.7-1.54-.11-2.24-.8-.69-1.61-1.07-2.47-.08-.75.87-.69,1.73.02,2.6.94.62,1.81.59,2.57-.27Z"/><path class="cls-4" d="m1200.24,134.01c.8-1,.38-1.75-.48-2.41-.83-.64-1.58-.57-2.23.25-.72.9-.6,1.76.16,2.58.97.56,1.83.48,2.56-.42Z"/><path class="cls-4" d="m1210.35,486.5c1.01-1.01.47-1.76-.36-2.44-.79-.65-1.55-.66-2.24.16-.73.88-.75,1.81.1,2.55.87.75,1.77.52,2.5-.27Z"/><path class="cls-4" d="m1242.52,31.7c.75-.9.94-1.64.1-2.39-.78-.69-1.58-1.16-2.47-.18-.76.83-.85,1.77-.05,2.57.82.81,1.74.62,2.43,0Z"/><path class="cls-4" d="m1198.15,169.4c.7-.87.65-1.82-.17-2.58-.91-.84-1.94-.86-2.79.08-.84.93-.73,1.91.19,2.82,1,.7,1.97.66,2.76-.32Z"/><path class="cls-4" d="m1273.49,596.58c.73-.85.71-1.81-.08-2.58-.87-.86-1.91-.93-2.79,0-.85.9-.81,1.89.1,2.83.97.72,1.93.73,2.77-.23Z"/><path class="cls-4" d="m1194.71,467.49c1.02-1,.04-1.54-.59-2.02-.56-.42-1.26-1.1-1.88.03-.46.84-.56,1.63.1,2.41.9.48,1.69.24,2.37-.42Z"/><path class="cls-4" d="m1171.96,289.48c.49-.53-.23-1.06-.79-1.52-.55-.46-1.24-1.17-1.93-.3-.63.8-.91,1.86.04,2.59.79.61,1.65.19,2.68-.77Z"/><path class="cls-4" d="m1202.76,99.07c1.01-.81.26-1.38-.27-1.85-.59-.53-1.3-1.41-2.11-.25-.54.77-.63,1.61.09,2.53.77.34,1.52.18,2.28-.43Z"/><path class="cls-4" d="m1176.98,220.06c.65-.84-.17-1.39-.77-1.82-.58-.42-1.27-1.04-1.88,0-.47.84-.68,1.77.11,2.39.93.73,1.92.22,2.54-.57Z"/><path class="cls-4" d="m1178.9,185.15c1.02-.8.24-1.38-.27-1.85-.59-.53-1.3-1.4-2.11-.24-.54.78-.62,1.61.03,2.44.85.5,1.6.24,2.35-.35Z"/><path class="cls-4" d="m1169.42,325.02c.97-.82.2-1.38-.33-1.84-.6-.52-1.32-1.38-2.1-.19-.52.79-.6,1.62.06,2.42.88.49,1.64.23,2.36-.39Z"/><path class="cls-4" d="m1224.26,47.52c.65-.84-.17-1.39-.77-1.82-.58-.42-1.27-1.04-1.88,0-.47.84-.68,1.77.11,2.39.93.73,1.92.22,2.54-.57Z"/><path class="cls-4" d="m1180.44,413.59c.82-.85,0-1.37-.53-1.83-.55-.47-1.19-1.04-1.78-.44-.65,1.01-.93,1.94-.23,2.63.85.84,1.82.4,2.55-.36Z"/><path class="cls-4" d="m1224.85,539.93c.78-.85-.04-1.38-.58-1.83-.56-.46-1.2-1.05-1.75-.42-.67,1.05-.93,1.98-.21,2.66.87.82,1.84.36,2.55-.4Z"/><path class="cls-2" d="m1366.25,202.19c-18.95-14.56-35.96-35.28-52.86-57.21-27.91-36.23-66.08-77.06-113.9-71.34-19.5,2.34-36.77,12.51-53.48,22.34-4.91,2.89-9.98,5.87-15.01,8.59-80.82,43.78-189.29,36-276.35-19.83-19.77-12.68-51.47-36.9-69.96-71.07h-4.14c18.74,35.8,51.72,61.04,72.14,74.14,88.16,56.53,198.08,64.37,280.05,19.96,5.08-2.75,10.18-5.75,15.12-8.66,16.38-9.64,33.32-19.61,52.07-21.86,45.99-5.51,83.26,34.48,110.58,69.95,14.25,18.5,32.8,42.57,55.74,59.33v-4.35Z"/><path class="cls-3" d="m971.15,860.34c-40.44-39.06-89.86-58.34-139.2-54.34-34.88,2.85-67.7,16.59-99.44,29.88-31.47,13.17-64.01,26.8-97.89,29.28-93.14,6.82-165.2-65.38-234.86-135.21-17.26-17.3-35.12-35.2-52.82-51.34-82.64-75.36-214.96-141.84-346.7-112.37v9.33c129-29.84,259.24,35.61,340.56,109.77,17.54,15.99,35.32,33.81,52.51,51.04,71.11,71.28,144.67,144.99,241.97,137.86,35.36-2.59,68.6-16.5,100.74-29.96,31.08-13.01,63.22-26.47,96.66-29.2,74.87-6.12,140.27,44.79,174.84,109.26h10.66c-11.97-23.66-27.92-45.54-47.04-64Z"/><path class="cls-3" d="m1366.25,751.84c-31.38-25.23-63.66-62.29-67.71-109.84-2.99-35.04,10.09-69.44,22.74-102.7,5.18-13.61,10.53-27.69,14.78-41.74,31.68-104.88.62-227.09-77.28-304.1-6-5.94-12.36-11.74-18.51-17.35-18.07-16.48-36.75-33.53-47.48-55.2-11.86-23.98-12.74-51.69-2.53-80.11,3.36-9.37,7.86-18.48,13.27-27.13h-10.61c-4.48,7.75-8.27,15.81-11.23,24.05-11.06,30.8-10.05,60.97,2.93,87.22,11.48,23.21,30.81,40.84,49.5,57.89,6.09,5.55,12.38,11.29,18.25,17.1,75.57,74.7,105.69,193.25,74.96,294.99-4.15,13.75-9.45,27.67-14.57,41.14-13.01,34.22-26.46,69.61-23.3,106.71,4.56,53.6,42.29,94.24,76.78,120.63v-11.57Z"/><path class="cls-2" d="m936.71,901.57c-8.9-71.01-79.66-145.16-160.93-138.14-28.47,2.47-53.99,14.23-78.68,25.59-8.16,3.76-16.6,7.65-24.99,11.12-108.29,44.89-248.58,30.8-349.09-35.08-13.54-8.88-26.82-18.86-39.66-28.51-32.22-24.21-65.53-49.25-106.02-59.31-70.44-17.51-137.64,16.19-177.1,42.9v4.4c38.59-26.54,105.89-61.25,176.22-43.76,39.77,9.88,72.78,34.69,104.71,58.69,12.89,9.69,26.22,19.71,39.85,28.64,101.48,66.52,243.13,80.74,352.48,35.4,8.46-3.5,16.93-7.4,25.12-11.18,24.4-11.24,49.63-22.86,77.47-25.28,79.28-6.82,148.31,65.6,157,134.97.94,7.49,1.35,14.93,1.35,22.32h3.64c0-7.54-.43-15.13-1.38-22.77Z"/><path class="cls-2" d="m38.98,50.57c0,1.71-1.39,3.1-3.1,3.1s-3.1-1.39-3.1-3.1,1.39-3.1,3.1-3.1,3.1,1.39,3.1,3.1Z"/><path class="cls-2" d="m66.16,50.57c0,1.71-1.39,3.1-3.1,3.1s-3.1-1.39-3.1-3.1,1.39-3.1,3.1-3.1,3.1,1.39,3.1,3.1Z"/><path class="cls-2" d="m93.34,50.57c0,1.71-1.39,3.1-3.1,3.1s-3.1-1.39-3.1-3.1,1.39-3.1,3.1-3.1,3.1,1.39,3.1,3.1Z"/><path class="cls-3" d="m120.52,50.57c0,1.71-1.39,3.1-3.1,3.1s-3.1-1.39-3.1-3.1,1.39-3.1,3.1-3.1,3.1,1.39,3.1,3.1Z"/><path class="cls-2" d="m38.98,70.66c0,1.71-1.39,3.1-3.1,3.1s-3.1-1.39-3.1-3.1,1.39-3.1,3.1-3.1,3.1,1.39,3.1,3.1Z"/><path class="cls-3" d="m66.16,70.66c0,1.71-1.39,3.1-3.1,3.1s-3.1-1.39-3.1-3.1,1.39-3.1,3.1-3.1,3.1,1.39,3.1,3.1Z"/><path class="cls-2" d="m93.34,70.66c0,1.71-1.39,3.1-3.1,3.1s-3.1-1.39-3.1-3.1,1.39-3.1,3.1-3.1,3.1,1.39,3.1,3.1Z"/><path class="cls-2" d="m120.52,70.66c0,1.71-1.39,3.1-3.1,3.1s-3.1-1.39-3.1-3.1,1.39-3.1,3.1-3.1,3.1,1.39,3.1,3.1Z"/><path class="cls-2" d="m38.98,90.75c0,1.71-1.39,3.1-3.1,3.1s-3.1-1.39-3.1-3.1,1.39-3.1,3.1-3.1,3.1,1.39,3.1,3.1Z"/><path class="cls-2" d="m66.16,90.75c0,1.71-1.39,3.1-3.1,3.1s-3.1-1.39-3.1-3.1,1.39-3.1,3.1-3.1,3.1,1.39,3.1,3.1Z"/><path class="cls-2" d="m93.34,90.75c0,1.71-1.39,3.1-3.1,3.1s-3.1-1.39-3.1-3.1,1.39-3.1,3.1-3.1,3.1,1.39,3.1,3.1Z"/><path class="cls-2" d="m120.52,90.75c0,1.71-1.39,3.1-3.1,3.1s-3.1-1.39-3.1-3.1,1.39-3.1,3.1-3.1,3.1,1.39,3.1,3.1Z"/><path class="cls-3" d="m38.98,110.84c0,1.71-1.39,3.1-3.1,3.1s-3.1-1.39-3.1-3.1,1.39-3.1,3.1-3.1,3.1,1.39,3.1,3.1Z"/><path class="cls-2" d="m66.16,110.84c0,1.71-1.39,3.1-3.1,3.1s-3.1-1.39-3.1-3.1,1.39-3.1,3.1-3.1,3.1,1.39,3.1,3.1Z"/><path class="cls-2" d="m93.34,110.84c0,1.71-1.39,3.1-3.1,3.1s-3.1-1.39-3.1-3.1,1.39-3.1,3.1-3.1,3.1,1.39,3.1,3.1Z"/><path class="cls-2" d="m120.52,110.84c0,1.71-1.39,3.1-3.1,3.1s-3.1-1.39-3.1-3.1,1.39-3.1,3.1-3.1,3.1,1.39,3.1,3.1Z"/><path class="cls-2" d="m38.98,130.93c0,1.71-1.39,3.1-3.1,3.1s-3.1-1.39-3.1-3.1,1.39-3.1,3.1-3.1,3.1,1.39,3.1,3.1Z"/><path class="cls-2" d="m66.16,130.93c0,1.71-1.39,3.1-3.1,3.1s-3.1-1.39-3.1-3.1,1.39-3.1,3.1-3.1,3.1,1.39,3.1,3.1Z"/><path class="cls-3" d="m93.34,130.93c0,1.71-1.39,3.1-3.1,3.1s-3.1-1.39-3.1-3.1,1.39-3.1,3.1-3.1,3.1,1.39,3.1,3.1Z"/><path class="cls-2" d="m120.52,130.93c0,1.71-1.39,3.1-3.1,3.1s-3.1-1.39-3.1-3.1,1.39-3.1,3.1-3.1,3.1,1.39,3.1,3.1Z"/><path class="cls-2" d="m38.98,154.71c0,1.71-1.39,3.1-3.1,3.1s-3.1-1.39-3.1-3.1,1.39-3.1,3.1-3.1,3.1,1.39,3.1,3.1Z"/><path class="cls-2" d="m66.16,154.71c0,1.71-1.39,3.1-3.1,3.1s-3.1-1.39-3.1-3.1,1.39-3.1,3.1-3.1,3.1,1.39,3.1,3.1Z"/><path class="cls-2" d="m93.34,154.71c0,1.71-1.39,3.1-3.1,3.1s-3.1-1.39-3.1-3.1,1.39-3.1,3.1-3.1,3.1,1.39,3.1,3.1Z"/><path class="cls-3" d="m120.52,154.71c0,1.71-1.39,3.1-3.1,3.1s-3.1-1.39-3.1-3.1,1.39-3.1,3.1-3.1,3.1,1.39,3.1,3.1Z"/><path class="cls-2" d="m38.98,174.8c0,1.71-1.39,3.1-3.1,3.1s-3.1-1.39-3.1-3.1,1.39-3.1,3.1-3.1,3.1,1.39,3.1,3.1Z"/><path class="cls-3" d="m66.16,174.8c0,1.71-1.39,3.1-3.1,3.1s-3.1-1.39-3.1-3.1,1.39-3.1,3.1-3.1,3.1,1.39,3.1,3.1Z"/><path class="cls-2" d="m93.34,174.8c0,1.71-1.39,3.1-3.1,3.1s-3.1-1.39-3.1-3.1,1.39-3.1,3.1-3.1,3.1,1.39,3.1,3.1Z"/><path class="cls-2" d="m120.52,174.8c0,1.71-1.39,3.1-3.1,3.1s-3.1-1.39-3.1-3.1,1.39-3.1,3.1-3.1,3.1,1.39,3.1,3.1Z"/><path class="cls-2" d="m38.98,194.89c0,1.71-1.39,3.1-3.1,3.1s-3.1-1.39-3.1-3.1,1.39-3.1,3.1-3.1,3.1,1.39,3.1,3.1Z"/><path class="cls-2" d="m66.16,194.89c0,1.71-1.39,3.1-3.1,3.1s-3.1-1.39-3.1-3.1,1.39-3.1,3.1-3.1,3.1,1.39,3.1,3.1Z"/><path class="cls-2" d="m93.34,194.89c0,1.71-1.39,3.1-3.1,3.1s-3.1-1.39-3.1-3.1,1.39-3.1,3.1-3.1,3.1,1.39,3.1,3.1Z"/><path class="cls-2" d="m120.52,194.89c0,1.71-1.39,3.1-3.1,3.1s-3.1-1.39-3.1-3.1,1.39-3.1,3.1-3.1,3.1,1.39,3.1,3.1Z"/><path class="cls-3" d="m38.98,214.98c0,1.71-1.39,3.1-3.1,3.1s-3.1-1.39-3.1-3.1,1.39-3.1,3.1-3.1,3.1,1.39,3.1,3.1Z"/><path class="cls-2" d="m66.16,214.98c0,1.71-1.39,3.1-3.1,3.1s-3.1-1.39-3.1-3.1,1.39-3.1,3.1-3.1,3.1,1.39,3.1,3.1Z"/><path class="cls-2" d="m93.34,214.98c0,1.71-1.39,3.1-3.1,3.1s-3.1-1.39-3.1-3.1,1.39-3.1,3.1-3.1,3.1,1.39,3.1,3.1Z"/><path class="cls-2" d="m120.52,214.98c0,1.71-1.39,3.1-3.1,3.1s-3.1-1.39-3.1-3.1,1.39-3.1,3.1-3.1,3.1,1.39,3.1,3.1Z"/><path class="cls-2" d="m38.98,235.07c0,1.71-1.39,3.1-3.1,3.1s-3.1-1.39-3.1-3.1,1.39-3.1,3.1-3.1,3.1,1.39,3.1,3.1Z"/><path class="cls-2" d="m66.16,235.07c0,1.71-1.39,3.1-3.1,3.1s-3.1-1.39-3.1-3.1,1.39-3.1,3.1-3.1,3.1,1.39,3.1,3.1Z"/><path class="cls-3" d="m93.34,235.07c0,1.71-1.39,3.1-3.1,3.1s-3.1-1.39-3.1-3.1,1.39-3.1,3.1-3.1,3.1,1.39,3.1,3.1Z"/><path class="cls-2" d="m120.52,235.07c0,1.71-1.39,3.1-3.1,3.1s-3.1-1.39-3.1-3.1,1.39-3.1,3.1-3.1,3.1,1.39,3.1,3.1Z"/></g></svg>