<svg xmlns="http://www.w3.org/2000/svg" xmlns:xlink="http://www.w3.org/1999/xlink" width="20" height="19.999" viewBox="0 0 20 19.999">
  <defs>
    <clipPath id="clip-path">
      <rect id="Rectangle_7" data-name="Rectangle 7" width="20" height="19.999" transform="translate(0 0)" fill="none"/>
    </clipPath>
  </defs>
  <g id="Group_12" data-name="Group 12" transform="translate(0 0)">
    <g id="Group_11" data-name="Group 11" clip-path="url(#clip-path)">
      <path id="Path_28" data-name="Path 28" d="M16.294,0a3.683,3.683,0,0,0-2.62,1.084L6.958,7.8a6.088,6.088,0,0,0-1.8,4.336v2.7h2.7a6.092,6.092,0,0,0,4.332-1.8l6.722-6.716A3.706,3.706,0,0,0,16.294,0Zm1.251,4.955-6.716,6.719A4.163,4.163,0,0,1,7.862,12.9H7.1v-.764A4.171,4.171,0,0,1,8.326,9.174l6.719-6.719a1.771,1.771,0,0,1,2.5,2.5Z" fill="#fff"/>
      <path id="Path_29" data-name="Path 29" d="M3.548,20H15.16a3.547,3.547,0,0,0,3.548-3.548V11.289H16.773v5.162a1.612,1.612,0,0,1-1.613,1.612H3.548a1.612,1.612,0,0,1-1.613-1.612V4.838A1.613,1.613,0,0,1,3.548,3.225H8.709V1.29H3.548A3.547,3.547,0,0,0,0,4.838V16.451A3.547,3.547,0,0,0,3.548,20Z" fill="#fff"/>
    </g>
  </g>
</svg>
