<svg xmlns="http://www.w3.org/2000/svg" xmlns:xlink="http://www.w3.org/1999/xlink" width="20" height="27.411" viewBox="0 0 20 27.411">
  <defs>
    <clipPath id="clip-path">
      <rect id="Rectangle_5" data-name="Rectangle 5" width="20" height="27.411" transform="translate(0 0)" fill="none"/>
    </clipPath>
  </defs>
  <g id="Group_7" data-name="Group 7" transform="translate(0 0)">
    <g id="Group_6" data-name="Group 6" clip-path="url(#clip-path)">
      <path id="Path_12" data-name="Path 12" d="M7.352,20.559v6.264a.617.617,0,0,0,.295.5.554.554,0,0,0,.294.089l.265-.059,4.117-2.059a.56.56,0,0,0,.324-.53v-4.2l7.118-6.118A.53.53,0,0,0,20,14V11.5a.767.767,0,0,0-.647-.736H.647A.765.765,0,0,0,0,11.5V14a.528.528,0,0,0,.235.441ZM1.176,11.941H18.823v1.794L11.7,19.823a.621.621,0,0,0-.235.442v4.147l-2.941,1.47V20.265a.619.619,0,0,0-.236-.442L1.176,13.735Z" fill="#fff"/>
      <path id="Path_13" data-name="Path 13" d="M3.323,10.235a2.527,2.527,0,1,0-1.789-.74,2.532,2.532,0,0,0,1.789.74m0-3.882h0a1.353,1.353,0,1,1-1.172.677A1.354,1.354,0,0,1,3.323,6.353Z" fill="#fff"/>
      <path id="Path_14" data-name="Path 14" d="M12.059,7.5a2.94,2.94,0,1,0,.871-2.061A2.941,2.941,0,0,0,12.059,7.5ZM15,5.765A1.736,1.736,0,0,1,16.765,7.5a1.765,1.765,0,1,1-3.53,0A1.736,1.736,0,0,1,15,5.765Z" fill="#fff"/>
      <path id="Path_15" data-name="Path 15" d="M9.088,7.118a1.941,1.941,0,1,0-1.373-.569,1.942,1.942,0,0,0,1.373.569m0-2.706a.764.764,0,1,1-.662.382.765.765,0,0,1,.662-.382" fill="#fff"/>
      <path id="Path_16" data-name="Path 16" d="M12.618,3.883a1.941,1.941,0,1,0-1.373-.569,1.942,1.942,0,0,0,1.373.569m0-2.706h0a.765.765,0,1,1-.541.224A.765.765,0,0,1,12.618,1.177Z" fill="#fff"/>
    </g>
  </g>
</svg>
