<?xml version="1.0" encoding="UTF-8"?><svg id="Layer_1" xmlns="http://www.w3.org/2000/svg" viewBox="0 0 132.78 47.33"><defs><style>.cls-1{fill:#1d2952;}</style></defs><g id="IG03"><rect class="cls-1" y="3.29" width="5.35" height="24.62"/><path class="cls-1" d="m20.39,8.87c-1.24,0-2.39.24-3.41.73-1.03.48-1.97,1.17-2.84,2.05l-.62-2.38h-4.06v18.64h5.19v-12.94c.6-.64,1.27-1.16,2.01-1.54.75-.38,1.46-.57,2.13-.57.91,0,1.6.28,2.07.85.48.56.71,1.32.71,2.28v11.92h5.19v-12.46c0-2.14-.54-3.76-1.63-4.89-1.1-1.12-2.67-1.68-4.73-1.68Z"/><path class="cls-1" d="m48.99,18.64c0-3.07-.73-5.46-2.17-7.18-1.45-1.72-3.45-2.58-5.99-2.58-1,0-1.93.17-2.8.51-.87.34-1.63.81-2.29,1.4V0h-5.15v27.9h3.75l.35-1.72h.16c.65.68,1.4,1.2,2.27,1.58.85.38,1.89.56,3.12.56s2.41-.22,3.49-.66c1.07-.44,1.99-1.09,2.78-1.93.78-.85,1.39-1.87,1.83-3.07.45-1.19.67-2.54.67-4.03Zm-5.75,2.68c-.26.71-.62,1.3-1.08,1.78-.45.46-.97.82-1.55,1.05-.59.23-1.2.35-1.82.35s-1.17-.13-1.7-.39c-.54-.26-.98-.58-1.31-.98v-8.56c.37-.44.87-.84,1.49-1.19.62-.36,1.3-.54,2.03-.54,1.38,0,2.45.51,3.21,1.51.75,1,1.13,2.47,1.13,4.4,0,.99-.12,1.85-.39,2.56Z"/><path class="cls-1" d="m86.6,27.9h3.87V9.27h-5.2v13.2c-.39.53-.91.98-1.57,1.37-.67.39-1.47.58-2.41.58-.83,0-1.52-.24-2.05-.74-.53-.5-.8-1.3-.8-2.42v-12h-5.2v12.43c0,2.19.58,3.84,1.74,4.96,1.16,1.13,2.74,1.68,4.75,1.68.78,0,1.49-.08,2.13-.23.63-.16,1.21-.36,1.71-.6.52-.25.95-.53,1.33-.83.38-.29.71-.59,1-.88h.16l.54,2.11Z"/><path class="cls-1" d="m105.12,8.87c-1.25,0-2.39.24-3.42.73-1.03.48-1.97,1.17-2.84,2.05l-.62-2.38h-4.06v18.64h5.2v-12.94c.59-.64,1.26-1.16,2.01-1.54.74-.38,1.45-.57,2.13-.57.9,0,1.6.28,2.07.85s.7,1.32.7,2.28v11.92h5.2v-12.46c0-2.14-.55-3.76-1.64-4.89-1.1-1.12-2.67-1.68-4.73-1.68Z"/><path class="cls-1" d="m127.59,0v10.28c-.46-.42-1.1-.76-1.89-1.01-.8-.26-1.64-.4-2.52-.4-1.38,0-2.61.23-3.67.69-1.07.46-1.97,1.11-2.69,1.96-.73.85-1.29,1.87-1.68,3.06-.39,1.2-.58,2.55-.58,4.02s.21,2.91.64,4.11c.43,1.2,1.02,2.22,1.78,3.05.75.84,1.63,1.47,2.65,1.91,1.01.44,2.11.66,3.29.66,1.4,0,2.54-.24,3.42-.74.87-.5,1.54-1.07,2.01-1.72h.19l.55,2.03h3.7V0h-5.19Zm0,22.47c-.29.54-.72,1.02-1.31,1.43-.58.4-1.29.6-2.13.6-.59,0-1.17-.12-1.7-.35-.53-.23-.99-.61-1.38-1.1-.4-.49-.71-1.12-.94-1.87-.23-.76-.35-1.66-.35-2.7s.13-1.97.39-2.71c.26-.75.61-1.34,1.04-1.8.43-.46.93-.79,1.49-1,.55-.2,1.15-.31,1.77-.31.65,0,1.25.15,1.8.44.55.28.99.63,1.33,1.05v8.33Z"/><path class="cls-1" d="m39.81,41.48h2.38v2.93c-.36.1-.88.16-1.53.16-1.29,0-2.29-.42-2.97-1.25-.7-.84-1.05-2.08-1.05-3.67,0-.9.12-1.67.35-2.3.23-.63.54-1.15.93-1.55.38-.4.84-.69,1.35-.88.53-.19,1.1-.28,1.69-.28.53,0,1.07.06,1.62.18.54.12,1.07.3,1.59.55l.26.13.81-2.61-.2-.09c-.57-.27-1.23-.48-1.95-.64-.71-.15-1.54-.23-2.45-.23-1.11,0-2.14.17-3.09.5-.95.34-1.78.83-2.48,1.48-.69.65-1.25,1.47-1.65,2.43-.4.96-.6,2.08-.6,3.31s.2,2.33.6,3.28c.4.95.96,1.76,1.66,2.42.7.66,1.54,1.15,2.49,1.48.94.33,1.97.49,3.06.49,1.03,0,1.96-.09,2.77-.25.8-.17,1.52-.39,2.13-.66l.15-.06v-7.7h-5.87v2.83Z"/><path class="cls-1" d="m72.15,31.94c-.99,0-1.89.19-2.7.57-.82.38-1.56.92-2.24,1.62l-.5-1.89h-3.21v14.74h4.11v-10.23c.47-.51,1.01-.92,1.59-1.22.59-.3,1.15-.45,1.68-.45.72,0,1.27.22,1.64.66.37.45.56,1.05.56,1.81v9.43h4.11v-9.86c0-1.69-.43-2.98-1.3-3.86-.87-.89-2.11-1.33-3.74-1.33Z"/><rect class="cls-1" x="79.76" y="32.25" width="4.11" height="14.74"/><path class="cls-1" d="m93.41,31.94c-1.11,0-2.12.19-3.03.57-.91.38-1.68.91-2.34,1.59-.65.68-1.15,1.5-1.5,2.46-.35.96-.52,2.02-.52,3.2,0,1.32.21,2.45.65,3.4.43.95,1.02,1.73,1.75,2.35.73.62,1.58,1.08,2.56,1.37.98.3,2.03.45,3.14.45s2.15-.09,3-.29c.85-.19,1.55-.43,2.1-.69l-.74-2.88c-.51.23-1.09.42-1.71.59-.63.16-1.35.25-2.18.25-1.3,0-2.36-.29-3.18-.87-.83-.58-1.24-1.45-1.24-2.63v-.12h9.8v-1.83c0-2.18-.59-3.88-1.78-5.1-1.19-1.21-2.77-1.82-4.77-1.82Zm-3.15,5.99c.1-.95.42-1.7.96-2.26.54-.56,1.22-.84,2.04-.84.45,0,.84.08,1.15.25s.57.39.77.66c.2.28.35.6.45.98.09.37.14.75.14,1.15l-5.5.06Z"/><path class="cls-1" d="m61.98,31.48c-.75.77-1.73,1.39-3.02,1.75-.33.1-.68.17-1.06.23-.35.05-.71.09-1.1.1-1.78.07-3.6.21-5.33.68-.99.27-2,.66-2.76,1.37-1.86,1.78-1.67,5.37-.68,7.54.43.95,1.02,1.73,1.75,2.35.73.62,1.59,1.08,2.56,1.37.98.3,2.03.45,3.14.45s2.16-.09,3-.29c.84-.19,1.54-.43,2.1-.69l-.74-2.88c-.52.23-1.09.42-1.72.59-.63.16-1.35.25-2.18.25-1.3,0-2.36-.29-3.19-.87-.82-.58-1.23-1.45-1.23-2.63v-.12h9.8v-1.83c0-2.08-.54-3.72-1.62-4.92,1.91-.92,2.27-2.46,2.26-2.45Zm-10.35,6.45c.1-.95.42-1.7.96-2.26.53-.56,1.21-.84,2.04-.84.45,0,.83.08,1.14.25s.57.39.78.66c.2.28.35.6.45.98.09.37.13.75.13,1.15l-5.5.06Z"/><path class="cls-1" d="m62.09,23.23c.85.81,2.33,1.17,2.33,1.17.01.46,0,1.89-.44,3.49.13-.05.27-.1.41-.15,1.18-.45,2.19-1.11,3.04-1.96.86-.85,1.53-1.88,2.02-3.09.49-1.2.74-2.56.74-4.06s-.24-2.93-.71-4.15c-.47-1.22-1.13-2.26-1.97-3.1-.85-.84-1.85-1.49-3.01-1.94-1.17-.45-2.43-.68-3.79-.68s-2.63.23-3.8.69c-1.18.46-2.2,1.13-3.06,1.99-.86.87-1.53,1.9-2.02,3.12-.48,1.21-.72,2.57-.72,4.08s.23,2.93.71,4.14c.47,1.21,1.13,2.24,1.97,3.07.78.77,1.7,1.37,2.75,1.81.13,1.82-.77,3.09-.77,3.09,1.02-.76,1.47-1.78,1.62-2.78.05-.34.07-.69.07-1.02-.01-.82-.17-1.55-.31-2.05,1.99-.44,3.18-4.47,6.82-4.03,0,0-2.5-1.09-4.96,1.46-.93.96-2.31,2.18-3.53,1.54-.85-.51-1.26-1.43-1.26-2.26,0-.69.32-1.31.83-1.71.07-.84.92-1.5,1.95-1.5.05,0,.1,0,.16,0,.3-.38.84-.64,1.44-.64.07,0,.14,0,.2.01.85-1.17.19-1.01-.27-2.31-.28-.8.05-.78.37-.64-.04-.17-.06-.35-.06-.54,0-.93.55-1.72,1.31-1.99.02-.09.08-.17.18-.23-.32-.73-.94-.02-1.38.2-1.21.67-1.76-.1-1.76-.1,1.36.13,1.67-3.36,3.41-1.98.54.43.48,1.35.4,1.81.17.06.29.17.32.3.76.27,1.31,1.06,1.31,1.99,0,.18-.02.36-.06.54.32-.14.66-.16.37.64-.46,1.3-1.13,1.14-.26,2.31.08,0,.17-.02.27-.02.61,0,1.14.26,1.44.64.05,0,.1,0,.16,0,1.04,0,1.88.66,1.95,1.5.51.4.83,1.02.83,1.71,0,.33-.07.68-.22,1.01-.97,2.18-5.03.62-5.03.62Z"/></g></svg>