<svg id="Group_4875" data-name="Group 4875" xmlns="http://www.w3.org/2000/svg" xmlns:xlink="http://www.w3.org/1999/xlink" width="132.783" height="47.333" viewBox="0 0 132.783 47.333">
  <defs>
    <clipPath id="clip-path">
      <rect id="Rectangle_4597" data-name="Rectangle 4597" width="132.783" height="47.333" transform="translate(0 0)" fill="none"/>
    </clipPath>
  </defs>
  <rect id="Rectangle_4595" data-name="Rectangle 4595" width="5.348" height="24.618" transform="translate(0 3.287)" fill="#1faa9e"/>
  <g id="Group_4874" data-name="Group 4874">
    <g id="Group_4873" data-name="Group 4873" clip-path="url(#clip-path)">
      <path id="Path_15115" data-name="Path 15115" d="M20.386,8.867a7.87,7.87,0,0,0-3.413.729,9.647,9.647,0,0,0-2.839,2.052l-.622-2.382H9.448V27.9H14.64V14.963a7.4,7.4,0,0,1,2.012-1.536,4.742,4.742,0,0,1,2.13-.574,2.534,2.534,0,0,1,2.071.846,3.422,3.422,0,0,1,.709,2.285V27.9h5.192V15.44a6.755,6.755,0,0,0-1.633-4.891,6.341,6.341,0,0,0-4.735-1.682" fill="#1faa9e"/>
      <path id="Path_15116" data-name="Path 15116" d="M48.989,18.637a10.879,10.879,0,0,0-2.171-7.185,7.435,7.435,0,0,0-5.995-2.584,7.709,7.709,0,0,0-2.8.513,7.379,7.379,0,0,0-2.285,1.4V0H30.581V27.9h3.754l.349-1.717h.159a6.943,6.943,0,0,0,2.266,1.583,7.672,7.672,0,0,0,3.117.563,9.111,9.111,0,0,0,3.485-.663,7.857,7.857,0,0,0,2.778-1.932,9.051,9.051,0,0,0,1.828-3.072,11.413,11.413,0,0,0,.672-4.028m-5.746,2.684a5.092,5.092,0,0,1-1.08,1.783,4.478,4.478,0,0,1-1.554,1.05,5.019,5.019,0,0,1-1.822.349,3.823,3.823,0,0,1-1.7-.389,4.045,4.045,0,0,1-1.315-.976V14.574a5.34,5.34,0,0,1,1.489-1.185,4.018,4.018,0,0,1,2.032-.537A3.791,3.791,0,0,1,42.5,14.36a7.251,7.251,0,0,1,1.13,4.4,7.446,7.446,0,0,1-.388,2.564" fill="#1faa9e"/>
      <path id="Path_15117" data-name="Path 15117" d="M86.6,27.905h3.87V9.266h-5.2v13.2a5.213,5.213,0,0,1-1.575,1.371,4.71,4.71,0,0,1-2.411.583,2.906,2.906,0,0,1-2.052-.739,3.17,3.17,0,0,1-.8-2.421v-12h-5.2V21.692a6.588,6.588,0,0,0,1.741,4.959,6.513,6.513,0,0,0,4.754,1.682,9.01,9.01,0,0,0,2.129-.234,8.773,8.773,0,0,0,1.711-.6A7.246,7.246,0,0,0,84.9,26.67a11.663,11.663,0,0,0,1-.875h.155Z" fill="#1faa9e"/>
      <path id="Path_15118" data-name="Path 15118" d="M105.117,8.867a7.91,7.91,0,0,0-3.422.729,9.651,9.651,0,0,0-2.84,2.052l-.622-2.382H94.169V27.9h5.2V14.963a7.121,7.121,0,0,1,2.012-1.536,4.677,4.677,0,0,1,2.13-.574,2.547,2.547,0,0,1,2.071.846,3.473,3.473,0,0,1,.7,2.285V27.9h5.2V15.44a6.759,6.759,0,0,0-1.643-4.891,6.331,6.331,0,0,0-4.725-1.682" fill="#1faa9e"/>
      <path id="Path_15119" data-name="Path 15119" d="M127.59,0V10.277A5.106,5.106,0,0,0,125.7,9.266a8.019,8.019,0,0,0-2.52-.4,9.316,9.316,0,0,0-3.674.687,7.257,7.257,0,0,0-2.694,1.957,8.763,8.763,0,0,0-1.683,3.062,13.1,13.1,0,0,0-.582,4.023,12.188,12.188,0,0,0,.642,4.108,8.927,8.927,0,0,0,1.778,3.052,7.519,7.519,0,0,0,2.653,1.912,8.2,8.2,0,0,0,3.287.662,6.941,6.941,0,0,0,3.415-.736,6.21,6.21,0,0,0,2.012-1.723h.194l.553,2.031h3.7V0Zm0,22.471a4.025,4.025,0,0,1-1.31,1.429,3.691,3.691,0,0,1-2.131.6,4.318,4.318,0,0,1-1.7-.348,3.605,3.605,0,0,1-1.38-1.1,5.486,5.486,0,0,1-.941-1.868,9.221,9.221,0,0,1-.353-2.7,8.276,8.276,0,0,1,.388-2.714,5.049,5.049,0,0,1,1.041-1.8,3.914,3.914,0,0,1,1.489-1,5.1,5.1,0,0,1,1.767-.314,3.826,3.826,0,0,1,1.8.438,4.073,4.073,0,0,1,1.329,1.051Z" fill="#1faa9e"/>
      <path id="Path_15120" data-name="Path 15120" d="M39.809,41.485h2.375v2.933a5.8,5.8,0,0,1-1.534.158,3.666,3.666,0,0,1-2.974-1.246,5.654,5.654,0,0,1-1.052-3.67,6.713,6.713,0,0,1,.351-2.3,4.328,4.328,0,0,1,.93-1.547,3.5,3.5,0,0,1,1.353-.877,5.035,5.035,0,0,1,1.688-.283,7.634,7.634,0,0,1,1.617.178,7.093,7.093,0,0,1,1.59.551l.259.126.813-2.6-.2-.092a9.4,9.4,0,0,0-1.947-.635,11.653,11.653,0,0,0-2.453-.233,9.2,9.2,0,0,0-3.087.5,7.064,7.064,0,0,0-2.476,1.48,6.9,6.9,0,0,0-1.648,2.428,8.613,8.613,0,0,0-.6,3.307,8.451,8.451,0,0,0,.6,3.284,6.784,6.784,0,0,0,4.146,3.9,9.308,9.308,0,0,0,3.064.493,13.639,13.639,0,0,0,2.77-.255,11.379,11.379,0,0,0,2.129-.655l.149-.065v-7.7H39.809Z" fill="#1faa9e"/>
      <path id="Path_15121" data-name="Path 15121" d="M72.147,31.941a6.243,6.243,0,0,0-2.7.573,7.477,7.477,0,0,0-2.24,1.623l-.5-1.887H63.493V46.993H67.6V36.761a5.654,5.654,0,0,1,1.593-1.22,3.723,3.723,0,0,1,1.683-.448,2.024,2.024,0,0,1,1.638.662,2.736,2.736,0,0,1,.558,1.812v9.426h4.113V37.134a5.3,5.3,0,0,0-1.3-3.864,4.992,4.992,0,0,0-3.739-1.329" fill="#1faa9e"/>
      <rect id="Rectangle_4596" data-name="Rectangle 4596" width="4.111" height="14.744" transform="translate(79.765 32.249)" fill="#1faa9e"/>
      <path id="Path_15122" data-name="Path 15122" d="M93.413,31.941a7.694,7.694,0,0,0-3.028.573A6.9,6.9,0,0,0,88.05,34.1a6.977,6.977,0,0,0-1.5,2.46,9.264,9.264,0,0,0-.523,3.2,8.129,8.129,0,0,0,.647,3.4,6.589,6.589,0,0,0,1.748,2.35,7.13,7.13,0,0,0,2.564,1.374,10.677,10.677,0,0,0,3.137.449,13.22,13.22,0,0,0,3-.294,10.224,10.224,0,0,0,2.1-.692l-.741-2.878a11.107,11.107,0,0,1-1.713.587,8.649,8.649,0,0,1-2.181.249,5.416,5.416,0,0,1-3.182-.866,2.994,2.994,0,0,1-1.24-2.629v-.12h9.8V38.862a7,7,0,0,0-1.777-5.1,6.36,6.36,0,0,0-4.775-1.823m-3.152,6a3.759,3.759,0,0,1,.956-2.256,2.72,2.72,0,0,1,2.041-.836,2.425,2.425,0,0,1,1.146.249,2.3,2.3,0,0,1,.771.662,2.788,2.788,0,0,1,.449.976,4.627,4.627,0,0,1,.139,1.145Z" fill="#1faa9e"/>
      <path id="Path_15123" data-name="Path 15123" d="M61.98,31.483a6.591,6.591,0,0,1-3.018,1.748,7.552,7.552,0,0,1-1.055.229,9.372,9.372,0,0,1-1.1.1,24.1,24.1,0,0,0-5.331.676,6.3,6.3,0,0,0-2.755,1.374c-1.864,1.777-1.671,5.373-.682,7.545a6.589,6.589,0,0,0,1.748,2.35,7.172,7.172,0,0,0,2.564,1.374,10.7,10.7,0,0,0,3.137.449,13.267,13.267,0,0,0,3-.294,10.434,10.434,0,0,0,2.1-.692l-.742-2.878a11.31,11.31,0,0,1-1.717.587,8.608,8.608,0,0,1-2.176.249,5.443,5.443,0,0,1-3.187-.866,3,3,0,0,1-1.235-2.629v-.12h9.8V38.862a7.088,7.088,0,0,0-1.618-4.924,4.02,4.02,0,0,0,2.261-2.455M51.628,37.936a3.733,3.733,0,0,1,.961-2.256,2.7,2.7,0,0,1,2.041-.836,2.4,2.4,0,0,1,1.141.249,2.372,2.372,0,0,1,.776.662,2.768,2.768,0,0,1,.448.976,4.823,4.823,0,0,1,.135,1.145Z" fill="#1faa9e"/>
      <path id="Path_15124" data-name="Path 15124" d="M62.089,23.228a6.02,6.02,0,0,0,2.325,1.17,12.353,12.353,0,0,1-.438,3.485c.135-.049.274-.1.408-.149a8.624,8.624,0,0,0,3.038-1.957,9.123,9.123,0,0,0,2.016-3.087,10.642,10.642,0,0,0,.742-4.063,11.564,11.564,0,0,0-.707-4.152,8.8,8.8,0,0,0-1.972-3.1,8.658,8.658,0,0,0-3.012-1.942,10.485,10.485,0,0,0-3.794-.677,10.354,10.354,0,0,0-3.8.692,8.857,8.857,0,0,0-3.057,1.987,9.146,9.146,0,0,0-2.017,3.116,10.958,10.958,0,0,0-.722,4.078,11.319,11.319,0,0,0,.707,4.138,8.668,8.668,0,0,0,1.972,3.072,8.391,8.391,0,0,0,2.753,1.808,5.058,5.058,0,0,1-.771,3.087,4.161,4.161,0,0,0,1.623-2.784,5.878,5.878,0,0,0,.069-1.016,8.285,8.285,0,0,0-.308-2.046c1.991-.443,3.181-4.466,6.821-4.033,0,0-2.5-1.09-4.964,1.464-.926.956-2.31,2.176-3.525,1.543a2.658,2.658,0,0,1-1.26-2.26,2.164,2.164,0,0,1,.832-1.708,1.846,1.846,0,0,1,1.951-1.5c.055,0,.1,0,.16.01a1.84,1.84,0,0,1,1.444-.642,1.36,1.36,0,0,1,.2.015c.851-1.17.189-1.006-.274-2.305-.284-.8.055-.777.373-.638a2.452,2.452,0,0,1-.064-.538A2.074,2.074,0,0,1,60.152,12.3a.38.38,0,0,1,.179-.229c-.318-.732-.936-.02-1.384.2-1.206.665-1.757-.105-1.757-.105,1.364.13,1.668-3.355,3.41-1.981.538.428.478,1.354.4,1.812a.477.477,0,0,1,.323.3,2.071,2.071,0,0,1,1.31,1.986,2.137,2.137,0,0,1-.065.538c.319-.139.657-.159.373.638-.463,1.3-1.13,1.135-.263,2.31a2.247,2.247,0,0,1,.268-.02,1.84,1.84,0,0,1,1.444.642c.055-.005.105-.01.16-.01a1.843,1.843,0,0,1,1.951,1.5,2.164,2.164,0,0,1,.832,1.708,2.545,2.545,0,0,1-.219,1.011c-.971,2.18-5.029.617-5.029.617" fill="#1faa9e"/>
    </g>
  </g>
</svg>
