<svg id="Group_2" data-name="Group 2" xmlns="http://www.w3.org/2000/svg" xmlns:xlink="http://www.w3.org/1999/xlink" width="20" height="22.5" viewBox="0 0 20 22.5">
  <defs>
    <clipPath id="clip-path">
      <rect id="Rectangle_1" data-name="Rectangle 1" width="20" height="22.5" fill="none"/>
    </clipPath>
  </defs>
  <g id="Group_1" data-name="Group 1" clip-path="url(#clip-path)">
    <path id="Path_1" data-name="Path 1" d="M13.456,19.23a3.461,3.461,0,0,1-6.912,0H2.311a2.308,2.308,0,1,1,0-4.615V10a7.7,7.7,0,0,1,5-7.208v-.1a2.692,2.692,0,0,1,5.384,0v.1a7.7,7.7,0,0,1,5,7.208v4.615a2.308,2.308,0,1,1,0,4.616Zm-1.543,0H8.086a1.923,1.923,0,0,0,3.827,0M8.29,4.086A6.154,6.154,0,0,0,3.846,10v4.615a1.539,1.539,0,0,1-1.538,1.539.77.77,0,1,0,0,1.539H17.688a.77.77,0,1,0,0-1.539,1.536,1.536,0,0,1-1.537-1.539V10A6.157,6.157,0,0,0,11.71,4.086l-.556-.16V2.69a1.154,1.154,0,0,0-2.308,0V3.926Z" fill="#010101"/>
  </g>
</svg>
