<svg xmlns="http://www.w3.org/2000/svg" width="20" height="29.08" viewBox="0 0 20 29.08">
  <g id="Group_8" data-name="Group 8" transform="translate(0 -0.01)">
    <path id="Path_17" data-name="Path 17" d="M0,5.91V28.18a.913.913,0,0,0,.91.91H19.09a.913.913,0,0,0,.91-.91V5.91A.913.913,0,0,0,19.09,5H15.33l-.35-1.05a.45.45,0,0,0-.43-.31H12.73V2.28A2.275,2.275,0,0,0,10.46.01H9.55A2.275,2.275,0,0,0,7.28,2.28V3.64H5.46a.454.454,0,0,0-.43.31L4.68,5H.91A.913.913,0,0,0,0,5.91ZM5.78,4.55H7.73a.448.448,0,0,0,.45-.45V2.28A1.361,1.361,0,0,1,9.54.92h.91a1.361,1.361,0,0,1,1.36,1.36V4.1a.448.448,0,0,0,.45.45h1.95l.61,1.82H5.18l.61-1.82ZM4.17,7.09a.455.455,0,0,0,.37.19H15.45a.455.455,0,0,0,.37-.19.431.431,0,0,0,.06-.41l-.26-.77h3.46V28.18H.91V5.91H4.37l-.26.77a.46.46,0,0,0,.06.41h0Z" fill="#fff"/>
    <path id="Path_18" data-name="Path 18" d="M2.27,10v2.73a.448.448,0,0,0,.45.45H7.27a.448.448,0,0,0,.45-.45V10a.448.448,0,0,0-.45-.45H2.73a.448.448,0,0,0-.45.45Zm.91.45H6.82v1.82H3.18Z" fill="#fff"/>
    <path id="Path_19" data-name="Path 19" d="M9.55,11.82h7.73a.45.45,0,1,0,0-.9H9.55a.45.45,0,1,0,0,.9Z" fill="#fff"/>
    <path id="Path_20" data-name="Path 20" d="M7.27,15.91H2.73a.448.448,0,0,0-.45.45v2.73a.448.448,0,0,0,.45.45H7.28a.448.448,0,0,0,.45-.45V16.36a.448.448,0,0,0-.45-.45Zm-.45,2.73H3.18V16.82H6.82Z" fill="#fff"/>
    <path id="Path_21" data-name="Path 21" d="M9.55,18.18h7.73a.45.45,0,0,0,0-.9H9.55a.45.45,0,0,0,0,.9Z" fill="#fff"/>
    <path id="Path_22" data-name="Path 22" d="M7.27,22.27H2.73a.448.448,0,0,0-.45.45v2.73a.448.448,0,0,0,.45.45H7.28a.448.448,0,0,0,.45-.45V22.72a.448.448,0,0,0-.45-.45ZM6.82,25H3.18V23.18H6.82Z" fill="#fff"/>
    <path id="Path_23" data-name="Path 23" d="M9.55,24.55h7.73a.45.45,0,0,0,0-.9H9.55a.45.45,0,0,0,0,.9Z" fill="#fff"/>
  </g>
</svg>
