<svg xmlns="http://www.w3.org/2000/svg" width="21" height="26.01" viewBox="0 0 21 26.01">
  <path id="Path_24" data-name="Path 24" d="M3.52.5A3,3,0,0,0,.5,3.48V19.52h0a.363.363,0,0,0,.03.11h0c0,.02.02.03.03.04a25.381,25.381,0,0,0,5.53,5.76h0l.04.04h.02a.214.214,0,0,0,.12.04H17.48a3,3,0,0,0,3.02-2.98V3.48A3,3,0,0,0,17.48.5Zm0,.43H17.48a2.572,2.572,0,0,1,2.6,2.55V22.56a2.565,2.565,0,0,1-2.6,2.55h-11V22.29a3,3,0,0,0-3.02-2.98H.93V3.48A2.557,2.557,0,0,1,3.52.93Zm7.02,4.92A3.564,3.564,0,0,0,7.62,7.23a4.447,4.447,0,0,0-.87,2.69h0a.212.212,0,0,0,.36.15.22.22,0,0,0,.06-.15,4.108,4.108,0,0,1,.78-2.43,3.082,3.082,0,0,1,2.58-1.22,3.123,3.123,0,0,1,3.1,2.08,3.271,3.271,0,0,1-1.14,3.62,14.6,14.6,0,0,0-1.47,1.24,2.385,2.385,0,0,0-.73,1.72h0c0,1.59-.02,1.9-.02,1.9h0a.2.2,0,0,0,.06.15.213.213,0,0,0,.15.07.2.2,0,0,0,.15-.06.213.213,0,0,0,.07-.15s0-.32.02-1.92h0a1.919,1.919,0,0,1,.61-1.43,15.309,15.309,0,0,1,1.43-1.21,3.716,3.716,0,0,0,1.27-4.09,3.575,3.575,0,0,0-3.51-2.36h0Zm-.02,13.4a.47.47,0,1,0,.48.47A.478.478,0,0,0,10.52,19.25Zm0,.43s.04.02.04.04a.04.04,0,1,1-.04-.04Zm-9.39.06H3.45a2.572,2.572,0,0,1,2.6,2.55v2.55a25.243,25.243,0,0,1-4.92-5.1h0Z" fill="#fff" stroke="#fff" stroke-miterlimit="10" stroke-width="1"/>
</svg>
