<svg xmlns="http://www.w3.org/2000/svg" xmlns:xlink="http://www.w3.org/1999/xlink" width="32" height="32" viewBox="0 0 32 32">
  <defs>
    <clipPath id="clip-path">
      <rect id="Rectangle_4620" data-name="Rectangle 4620" width="32" height="32" transform="translate(0.713 -0.625)"/>
    </clipPath>
  </defs>
  <g id="Group_4888" data-name="Group 4888" transform="translate(-0.713 0.625)">
    <g id="IG03_1_" clip-path="url(#clip-path)">
      <path id="Path_15110" data-name="Path 15110" d="M17.869,21a8.558,8.558,0,0,0,3.3,1.662,17.565,17.565,0,0,1-.622,4.95c.191-.071.389-.141.58-.212a12.239,12.239,0,0,0,4.313-2.779,12.96,12.96,0,0,0,2.864-4.384,15.114,15.114,0,0,0,1.054-5.77,16.412,16.412,0,0,0-1-5.9,12.515,12.515,0,0,0-2.8-4.405,12.319,12.319,0,0,0-4.278-2.758A14.9,14.9,0,0,0,15.89.444a14.689,14.689,0,0,0-5.4.983,12.58,12.58,0,0,0-4.343,2.82A13,13,0,0,0,3.281,8.673a15.554,15.554,0,0,0-1.025,5.791,16.067,16.067,0,0,0,1,5.876A12.336,12.336,0,0,0,6.06,24.7,11.888,11.888,0,0,0,9.97,27.27a7.184,7.184,0,0,1-1.1,4.384A5.9,5.9,0,0,0,11.179,27.7a8.375,8.375,0,0,0,.1-1.442,11.779,11.779,0,0,0-.438-2.906c2.828-.629,4.518-6.343,9.687-5.728,0,0-3.55-1.549-7.05,2.079-1.315,1.358-3.281,3.09-5.006,2.192a3.777,3.777,0,0,1-1.789-3.21,3.073,3.073,0,0,1,1.181-2.425,2.622,2.622,0,0,1,2.772-2.135c.078,0,.149.007.226.014a2.615,2.615,0,0,1,2.051-.912,1.95,1.95,0,0,1,.29.021c1.209-1.662.269-1.428-.389-3.274-.4-1.131.078-1.1.53-.9a3.392,3.392,0,0,1-.092-.764,2.946,2.946,0,0,1,1.867-2.821.536.536,0,0,1,.255-.325c-.453-1.039-1.329-.028-1.966.29-1.713.945-2.5-.149-2.5-.149,1.937.184,2.369-4.766,4.844-2.814.764.608.679,1.923.573,2.574a.681.681,0,0,1,.46.424,2.941,2.941,0,0,1,1.86,2.821,3.039,3.039,0,0,1-.092.764c.453-.2.933-.226.53.9-.658,1.846-1.6,1.612-.375,3.281a3.264,3.264,0,0,1,.382-.028,2.617,2.617,0,0,1,2.051.912c.078-.007.149-.014.226-.014a2.617,2.617,0,0,1,2.772,2.135,3.076,3.076,0,0,1,1.181,2.425,3.594,3.594,0,0,1-.311,1.435C23.632,23.219,17.869,21,17.869,21Z" fill="#233f91"/>
    </g>
  </g>
</svg>
